<svg xmlns="http://www.w3.org/2000/svg" viewBox="0 0 30 30"><defs><style>.cls-1{fill:#fff;}</style></defs><title>icon-ps</title><g id="레이어_2" data-name="레이어 2"><g id="레이어_1-2" data-name="레이어 1"><rect width="30" height="30" rx="2" ry="2"/><path class="cls-1" d="M8.19,16.45h2c3.26,0,5.12-1.58,5.12-4.34S13.62,8,10.11,8h-4V21.76H8.19Zm0-6.7H9.91c2.41,0,3.35.66,3.35,2.36s-1,2.59-3.27,2.59H8.19Z"/><path class="cls-1" d="M20.14,20.32a4.28,4.28,0,0,1-2.82-1.12l-.15-.13-1.05,1.4.14.12A6.12,6.12,0,0,0,20.09,22c2.63,0,3.8-1.57,3.8-3.13,0-2-1.65-2.62-3.15-3.19l-.18-.07c-1-.38-1.89-.7-1.89-1.47s.62-1.23,1.62-1.23a3.55,3.55,0,0,1,2.17.84l.15.11,1-1.38-.15-.12a5.36,5.36,0,0,0-3.2-1.15c-2.12,0-3.61,1.24-3.61,3s1.93,2.61,3.08,3,2.15.82,2.15,1.7S21.23,20.32,20.14,20.32Z"/></g></g></svg>