<svg xmlns="http://www.w3.org/2000/svg" viewBox="0 0 30 30"><defs><style>.cls-1{fill:#fff;}</style></defs><title>icon-ai</title><g id="레이어_2" data-name="레이어 2"><g id="레이어_1-2" data-name="레이어 1"><rect width="30" height="30" rx="2" ry="2"/><path class="cls-1" d="M11,18.05h4.46L16.67,22h2.12L14.32,8.83l-.05-.12H12.19L7.76,21.76,7.68,22H9.73Zm.52-1.67.56-1.74c.43-1.38.8-2.59,1.15-3.87.4,1.4.76,2.62,1.16,3.87l.55,1.74Z"/><rect class="cls-1" x="20.03" y="12.06" width="1.97" height="9.94"/><path class="cls-1" d="M21,8a1.2,1.2,0,0,0-1.3,1.22,1.3,1.3,0,0,0,2.59,0A1.2,1.2,0,0,0,21,8Z"/></g></g></svg>