<svg xmlns="http://www.w3.org/2000/svg" viewBox="0 0 30 30"><defs><style>.cls-1{fill:#b3b3b3;}.cls-2{fill:#fff;}</style></defs><title>icon-css</title><g id="레이어_2" data-name="레이어 2"><g id="레이어_1-2" data-name="레이어 1"><rect width="30" height="30" rx="2" ry="2"/><polygon class="cls-1" points="6.52 7.7 8.07 25.07 15 27 22.04 25.07 23.48 7.7 6.52 7.7"/><path class="cls-2" d="M6.52,7.7,8.07,25.07,15,27l7-1.93L23.48,7.7ZM20.79,24,15,25.63h0V9h7Z"/><polygon points="9.66 11.11 9.84 13.24 12.23 13.24 17.96 13.24 17.8 15.38 12.43 15.38 12.63 17.57 17.54 17.57 17.37 20.29 14.97 20.91 12.62 20.29 12.49 18.6 10.31 18.6 10.6 21.95 14.99 23.17 19.41 21.95 20.33 11.11 9.66 11.11"/><polygon class="cls-2" points="12.71 3.92 12.71 3 11.18 3 10.1 3 10.1 3.92 10.1 5.33 10.1 6.25 11.18 6.25 12.71 6.25 12.71 5.33 11.18 5.33 11.18 3.92 12.71 3.92"/><polygon class="cls-2" points="16.25 3 13.29 3 13.29 3.88 14.77 5.36 13.29 5.36 13.29 6.24 16.25 6.24 16.25 5.36 14.77 3.88 16.25 3.88 16.25 3"/><polygon class="cls-2" points="19.82 3 16.87 3 16.87 3.88 18.35 5.36 16.87 5.36 16.87 6.24 19.82 6.24 19.82 5.36 18.35 3.88 19.82 3.88 19.82 3"/></g></g></svg>