<svg xmlns="http://www.w3.org/2000/svg" viewBox="0 0 30 30"><defs><style>.cls-1{fill:#fff;}</style></defs><title>icon-xd</title><g id="레이어_2" data-name="레이어 2"><g id="레이어_1-2" data-name="레이어 1"><rect width="30" height="30" rx="2" ry="2"/><path class="cls-1" d="M15.15,9.06h-2L11.4,12.31c-.23.44-.42.85-.64,1.32l-.12.25c-.18-.31-.32-.58-.46-.85s-.25-.48-.39-.72L8.05,9.06H5.93L9.4,15.21,5.69,21.78h2l1.84-3.43c.29-.56.58-1.13.88-1.76l.94,1.76,1.82,3.34,0,.09h2.13l-3.71-6.49Z"/><path class="cls-1" d="M22.42,8v3.71l.07,1.2A3.68,3.68,0,0,0,20.1,12c-2,0-4.14,1.75-4.14,5,0,3.07,1.52,5,4,5a4.12,4.12,0,0,0,2.68-1.14l.13.92h1.58V8Zm0,6.55v4.66a2.93,2.93,0,0,1-2.17,1.16c-1.49,0-2.35-1.23-2.35-3.35,0-1.94,1-3.34,2.47-3.34A3,3,0,0,1,22.42,14.55Z"/></g></g></svg>