<svg xmlns="http://www.w3.org/2000/svg" viewBox="0 0 30 30"><defs><style>.cls-1{fill:#fff;}</style></defs><title>icon-excel</title><g id="레이어_2" data-name="레이어 2"><g id="레이어_1-2" data-name="레이어 1"><rect width="30" height="30" rx="2" ry="2"/><polygon class="cls-1" points="5.4 6.94 5.4 23.08 17.23 25.2 17.23 4.8 5.4 6.94"/><path d="M12.2,15l2-4.12-1.7.08L11.21,14a4.91,4.91,0,0,0-.18-.67l-.89-2.28-1.62.11L10.25,15l-1.91,3.8,1.67.12.87-2.11a4.19,4.19,0,0,0,.27-.9L12.44,19l1.85.14Z"/><path class="cls-1" d="M24.16,8.37H18V21.63h6.13a.44.44,0,0,0,.44-.44V8.81A.44.44,0,0,0,24.16,8.37Z"/><rect x="17.85" y="9.95" width="1.99" height="1.57"/><rect x="20.24" y="9.95" width="2.88" height="1.57"/><rect x="17.85" y="12.08" width="1.99" height="1.57"/><rect x="20.24" y="12.08" width="2.88" height="1.57"/><rect x="17.85" y="14.21" width="1.99" height="1.57"/><rect x="20.24" y="14.21" width="2.88" height="1.57"/><rect x="17.85" y="16.35" width="1.99" height="1.57"/><rect x="20.24" y="16.35" width="2.88" height="1.57"/><rect x="20.24" y="18.48" width="2.96" height="1.57"/><rect x="17.85" y="18.48" width="1.99" height="1.57"/></g></g></svg>