<svg xmlns="http://www.w3.org/2000/svg" viewBox="0 0 30 30"><defs><style>.cls-1{fill:#b3b3b3;}.cls-2{fill:#fff;}</style></defs><title>icon-html</title><g id="레이어_2" data-name="레이어 2"><g id="레이어_1-2" data-name="레이어 1"><rect width="30" height="30" rx="2" ry="2"/><polygon class="cls-1" points="6.52 7.71 8.08 25.07 15 27 22.03 25.07 23.48 7.71 6.52 7.71"/><path class="cls-2" d="M6.52,7.71,8.08,25.07,15,27l7-1.93L23.48,7.71ZM20.79,24,15,25.63h0V9h7Z"/><polygon points="17.23 13.38 18.05 13.38 20.18 13.38 20.37 11.26 9.69 11.26 10.31 17.7 11.52 17.7 12.44 17.7 12.97 17.7 17.68 17.7 17.44 20.43 15.04 21.1 12.71 20.44 12.55 18.77 10.42 18.77 10.74 22.08 15.03 23.3 19.42 22.08 19.99 15.56 18.86 15.56 17.86 15.56 12.24 15.56 12.03 13.38 17.23 13.38"/><polygon class="cls-2" points="10.22 3 10.22 4.08 9.22 4.08 9.22 3 8.14 3 8.14 6.24 9.22 6.24 9.22 5.16 10.22 5.16 10.22 6.24 11.29 6.24 11.29 3 10.22 3"/><polygon class="cls-2" points="14.72 3 13.79 3 12.71 3 11.77 3 11.77 4.08 12.71 4.08 12.71 6.24 13.79 6.24 13.79 4.08 14.72 4.08 14.72 3"/><polygon class="cls-2" points="20.46 5.16 20.46 3 19.39 3 19.39 5.16 19.39 6.24 20.46 6.24 22 6.24 22 5.16 20.46 5.16"/><polygon class="cls-2" points="17.78 3 17.78 3.04 17.04 4.14 16.27 3 15.19 3 15.19 6.24 16.27 6.24 16.27 4.68 17.05 5.82 17.78 4.68 17.78 6.24 18.86 6.24 18.86 3 17.78 3"/></g></g></svg>