<svg xmlns="http://www.w3.org/2000/svg" viewBox="0 0 30 30"><defs><style>.cls-1{fill:#fff;}</style></defs><title>icon-word</title><g id="레이어_2" data-name="레이어 2"><g id="레이어_1-2" data-name="레이어 1"><rect width="30" height="30" rx="2" ry="2"/><polygon class="cls-1" points="5.4 6.94 5.4 23.08 17.23 25.2 17.23 4.8 5.4 6.94"/><polygon points="7.37 11.95 8.66 18.45 9.95 18.45 10.85 13.94 11.87 18.67 13.3 18.67 14.74 11.44 13.44 11.44 12.68 16.53 11.47 11.64 10.32 11.64 9.36 16.62 8.52 11.95 7.37 11.95"/><path class="cls-1" d="M24.17,8.32H18V21.58h6.14a.44.44,0,0,0,.43-.44V8.76A.44.44,0,0,0,24.17,8.32Z"/><rect x="18.03" y="17.35" width="5.76" height="0.8"/><rect x="18.03" y="15.49" width="5.76" height="0.8"/><rect x="18.03" y="13.64" width="5.76" height="0.8"/><rect x="18.03" y="11.79" width="5.76" height="0.8"/><rect x="18.03" y="9.93" width="5.76" height="0.8"/><rect x="18.03" y="19.2" width="5.76" height="0.8"/></g></g></svg>