<svg xmlns="http://www.w3.org/2000/svg" viewBox="0 0 30 30"><defs><style>.cls-1{fill:#b3b3b3;}.cls-2{fill:#fff;}</style></defs><title>icon-js</title><g id="레이어_2" data-name="레이어 2"><g id="레이어_1-2" data-name="레이어 1"><rect width="30" height="30" rx="2" ry="2"/><polygon class="cls-1" points="6.52 7.71 8.08 25.07 15 27 22.03 25.07 23.48 7.71 6.52 7.71"/><path class="cls-2" d="M6.52,7.72,8.08,25.07,15,27l7-1.93L23.48,7.72ZM20.79,24,15,25.63h0V9h7Z"/><polygon points="17.42 15.53 12.68 15.53 12.98 12.07 17.56 12.07 17.8 14.49 19.93 14.49 19.49 9.95 11.04 9.95 10.36 17.69 12.48 17.69 13.09 17.69 17.54 17.69 17.32 20.4 14.98 21.08 12.63 20.43 12.48 18.73 10.35 18.73 10.35 18.77 10.64 22.09 15 23.29 19.31 22.02 19.85 15.53 17.72 15.53 17.42 15.53"/><polygon class="cls-2" points="13.46 3 13.46 5.16 11.91 5.16 11.91 6.24 13.46 6.24 14.54 6.24 14.54 5.16 14.54 3 13.46 3"/><polygon class="cls-2" points="18.04 3 15.08 3 15.08 3.88 16.56 5.36 15.08 5.36 15.08 6.24 18.04 6.24 18.04 5.36 16.56 3.88 18.04 3.88 18.04 3"/></g></g></svg>