<svg xmlns="http://www.w3.org/2000/svg" viewBox="0 0 30 30"><defs><style>.cls-1{fill:#fff;}</style></defs><title>icon-powerpoint</title><g id="레이어_2" data-name="레이어 2"><g id="레이어_1-2" data-name="레이어 1"><rect width="30" height="30" rx="2" ry="2"/><path class="cls-1" d="M5.4,23.08,17.23,25.2V4.8L5.4,6.94Zm3.75-7V11.45l2.72-.13a2,2,0,0,1,1.85,2.4A2.26,2.26,0,0,1,11.6,16.1H10.4v2.48H9.15Z"/><path class="cls-1" d="M12.73,13.66a1.39,1.39,0,0,0-.24-1,1,1,0,0,0-.63-.3l-1.46.06V15.1h1.2C11.89,15.08,12.65,14.91,12.73,13.66Z"/><path d="M10.4,16.1h1.2a2.26,2.26,0,0,0,2.12-2.38,2,2,0,0,0-1.85-2.4l-2.72.13v7.13H10.4Zm0-3.71,1.46-.06a1,1,0,0,1,.63.3,1.39,1.39,0,0,1,.24,1c-.08,1.25-.84,1.42-1.13,1.44H10.4Z"/><path class="cls-1" d="M24.16,8.32H18v2.27a2.92,2.92,0,0,1,1.07-.22v2.87H22A2.86,2.86,0,0,1,19.1,16.1,2.73,2.73,0,0,1,18,15.88v1.37h4.82v.8H18v1h4.82v.8H18v1.75h6.13a.44.44,0,0,0,.44-.44V8.76A.44.44,0,0,0,24.16,8.32Zm-4.47,4.33V9.79a2.86,2.86,0,0,1,2.86,2.86Z"/><path d="M19.1,16.1A2.86,2.86,0,0,0,22,13.24H19.1V10.37a2.92,2.92,0,0,0-1.07.22v5.29A2.73,2.73,0,0,0,19.1,16.1Z"/><path d="M19.69,9.79v2.86h2.86A2.86,2.86,0,0,0,19.69,9.79Z"/><rect x="18.03" y="17.25" width="4.82" height="0.8"/><rect x="18.03" y="19.03" width="4.82" height="0.8"/></g></g></svg>