<svg xmlns="http://www.w3.org/2000/svg" xmlns:xlink="http://www.w3.org/1999/xlink" viewBox="0 0 360 100"><defs><style>.cls-1{fill:url(#무제_그라디언트_16);}.cls-2{fill:#fff;}.cls-3{fill:#ccc;}</style><linearGradient id="무제_그라디언트_16" x1="166.15" y1="42.36" x2="288.82" y2="110" gradientUnits="userSpaceOnUse"><stop offset="0" stop-color="#484848"/><stop offset="1" stop-color="#252525"/></linearGradient></defs><title>mobile line banner_2</title><g id="레이어_2" data-name="레이어 2"><g id="레이어_1-2" data-name="레이어 1"><rect class="cls-1" width="360" height="100"/><path class="cls-2" d="M117.18,32.65V46.77c0,.87.18,1.24.58,1.47v.17h-3.09v-.17c.37-.23.57-.6.57-1.47v-15l-6.87,11.9h-.22L101,32.78V45.42a3.56,3.56,0,0,0,1.56,2.82v.17H99.26v-.17a3.57,3.57,0,0,0,1.57-2.82V32.53L99.71,31H102l7.14,11,6.35-11h2.32v.2C117.36,31.41,117.18,31.76,117.18,32.65Z"/><path class="cls-2" d="M122.83,48.24v.17h-3.09v-.17c.38-.23.55-.6.55-1.47V38.35c0-.87-.07-1.12-.55-1.19V37l2.34-.54h.18V46.77C122.26,47.64,122.43,48,122.83,48.24Zm-2.79-15a1.17,1.17,0,1,1,1.17,1.17A1.17,1.17,0,0,1,120,33.25Z"/><path class="cls-2" d="M136.79,48.24v.17h-4.18v-.17c.4-.18.75-.63.18-1.42l-3.31-4.36-1.27,1.64c-1.75,2.27-2.29,3.64-1.27,4.14v.17h-3.12v-.17c1.5-.65,2.32-1.67,4.11-4l1.45-1.86-3.07-4a4.65,4.65,0,0,0-2-1.69v-.2h4.19v.2c-.4.17-.78.62-.15,1.44l2.58,3.41.58-.75c1.74-2.24,2.29-3.63,1.29-4.1v-.2h3.09v.2c-1.49.62-2.32,1.66-4.11,4l-.75,1,3.74,4.91A4.76,4.76,0,0,0,136.79,48.24Z"/><path class="cls-2" d="M150.26,48.24v.17h-4.18v-.17c.39-.18.74-.63.17-1.42l-3.31-4.36-1.27,1.64c-1.74,2.27-2.29,3.64-1.27,4.14v.17h-3.11v-.17c1.49-.65,2.31-1.67,4.11-4l1.44-1.86-3.06-4a4.65,4.65,0,0,0-2-1.69v-.2h4.18v.2c-.4.17-.77.62-.15,1.44l2.59,3.41.57-.75c1.74-2.24,2.29-3.63,1.3-4.1v-.2h3.08v.2c-1.49.62-2.31,1.66-4.1,4l-.75,1,3.73,4.91A4.73,4.73,0,0,0,150.26,48.24Z"/><path class="cls-2" d="M163.23,42a6.69,6.69,0,0,1-6.75,6.6c-3.36,0-6.22-2-6.22-5.53A6.61,6.61,0,0,1,157,36.44C160.34,36.44,163.23,38.53,163.23,42Zm-2.09-.79c-.88-3-3.21-5.11-6-4.29s-3.61,3.94-2.74,6.95,3.21,5.13,6.05,4.28S162,44.18,161.14,41.17Z"/><path class="cls-2" d="M184.91,48.41h-3.84v-.17c.65-.65.45-1.52-.25-3.34l-1.22-3.16h-6.17l-.67,1.89c-.8,2.27-.92,3.49.12,4.61v.17h-2.94v-.17a11.27,11.27,0,0,0,2.62-4.61l3.73-10.51L175.47,31h2l4.85,12.65a14.88,14.88,0,0,0,2.62,4.61Zm-5.38-6.87-3.14-8.14-2.89,8.14Z"/><path class="cls-2" d="M189,48.24v.17H185.9v-.17c.37-.23.55-.6.55-1.47V32.38c0-.87-.08-1.12-.55-1.2V31l2.34-.52h.17V46.77C188.41,47.64,188.59,48,189,48.24Z"/><path class="cls-2" d="M193.76,48.24v.17H190.7v-.17c.38-.23.55-.6.55-1.47V32.38c0-.87-.08-1.12-.55-1.2V31l2.34-.52h.18V46.77C193.22,47.64,193.39,48,193.76,48.24Z"/><path class="cls-2" d="M211.88,45.4l-.54,3H201.23v-.17c.37-.23.55-.6.55-1.47V32.65c0-.87-.18-1.24-.55-1.47V31h9.31l.52,2.77-.12.1a6.83,6.83,0,0,0-5.45-2.67h-1.75v7.35L210,38v1.27l-6.28-.52v9.51h2a7.55,7.55,0,0,0,6-2.94Z"/><path class="cls-2" d="M221.51,41.24l-2.11,5.28.8,1.89h-2l-3.09-7.27c-1-2.44-1.57-3.51-2.76-4.5v-.2h3.81v.2c-.65.67-.42,1.34.15,2.73l3,6.92,2-5.07c.92-2.29,1.2-3.66.1-4.58v-.2h2.94v.2A12.92,12.92,0,0,0,221.51,41.24Z"/><path class="cls-2" d="M236.75,44.45c-.15,1.77-1.72,4.11-5.25,4.11s-6.75-1.69-6.85-5.8c-.12-4.31,3.78-6.17,6.52-6.32,2.12-.1,5,.92,5.38,3.93h-2.32A3.64,3.64,0,0,1,236.75,44.45Zm-3.54-4.08h-6.44a7.15,7.15,0,0,0,.17,4A5,5,0,0,0,232.27,48a4.36,4.36,0,0,0,4.26-3.51A3.42,3.42,0,0,0,233.21,40.37Zm-6.39-.2h7.94a4,4,0,0,0-4.71-3.44A4.37,4.37,0,0,0,226.82,40.17Z"/><path class="cls-2" d="M250.81,48.24v.17h-3.08v-.17c.39-.23.49-.65.42-1.47s-.45-5-.57-6.33c-.18-1.86-1.1-4-3.24-3.56-2.79.55-3.31,5.75-3.31,7.85v2c0,.87.17,1.24.57,1.47v.17h-3.09v-.17c.38-.23.55-.6.55-1.47V38.35c0-.87-.07-1.12-.55-1.19V37l2.34-.54H241v6.17c.32-2.79,1.17-6.17,4.4-6.17,2,0,3.79,1.39,4.09,4.38.25,2.41.5,5,.59,6S250.44,48,250.81,48.24Z"/><path class="cls-2" d="M260.74,44.05c-.47,2.34-1.52,4.51-4.13,4.51-2.22,0-3.59-1.44-3.59-4.38V36.64h-1.46v-.2c2.11,0,2.29-2.22,2.29-3.41h2a3.71,3.71,0,0,1-3.38,3.41h5.5v.2H255v7.91c0,2.17.6,3.84,2.71,3.56,1.65-.22,2.47-2.19,2.92-4.11Z"/><path class="cls-3" d="M98.9,62.15a5.11,5.11,0,0,0,2.91,4.35l-.49.7a5.81,5.81,0,0,1-2.85-3.32,6.22,6.22,0,0,1-2.8,3.58l-.51-.69A5.63,5.63,0,0,0,98,62.15v-1.5H95.49v-.73h6v.73H98.9Zm5-3.33V69.53H103V58.82Z"/><path class="cls-3" d="M115.91,63.36v.73h-9.74v-.73h7.28a13.17,13.17,0,0,0,.31-3.19v-.06h-6.33v-.73h7.2v.79a13.47,13.47,0,0,1-.3,3.19Zm-8.53,2.24h7.28v3.78h-7.28Zm.87,3.06h5.56V66.31h-5.56Z"/><path class="cls-3" d="M126.68,65.11a4.54,4.54,0,0,1-2.74-2.49,4.57,4.57,0,0,1-2.74,2.7l-.46-.69a3.92,3.92,0,0,0,2.75-3.51v-.68H121v-.72h5.9v.72h-2.5v.68a3.74,3.74,0,0,0,2.75,3.3Zm3,3.46v.73H122.5V65.94h.87v2.63Zm-.34-1.89h-.87V58.82h.87Z"/><path class="cls-3" d="M137.05,60.83h-5.5v-.71h2.33V58.89h.86v1.23h2.31Zm-2.75,4.25c-1.34,0-2.27-.72-2.27-1.83s.93-1.83,2.27-1.83,2.28.72,2.28,1.83S135.67,65.08,134.3,65.08Zm0-.66c.9,0,1.5-.47,1.5-1.17s-.6-1.17-1.5-1.17-1.49.47-1.49,1.17S133.41,64.42,134.3,64.42Zm6.39,3.25c0,1.17-1.33,1.84-3.55,1.84s-3.57-.67-3.57-1.84,1.33-1.87,3.57-1.87S140.69,66.48,140.69,67.67Zm-.86,0c0-.75-1-1.18-2.69-1.18s-2.7.43-2.7,1.18,1,1.16,2.7,1.16S139.83,68.4,139.83,67.67Zm-1.51-2.45h-.83V59h.83v2.75h1.48v-3h.84V65.6h-.84V62.5h-1.48Z"/><path class="cls-3" d="M147.94,64.57v1.2c2,.09,3.23.75,3.23,1.87s-1.37,1.87-3.67,1.87-3.66-.68-3.66-1.87,1.2-1.78,3.23-1.87v-1.2h-4.41v-.73h9.7v.73Zm-4.71-2.11c1.83-.2,3.69-1.16,3.72-2.43h-3.4v-.72h7.93V60h-3.42c0,1.27,1.9,2.23,3.73,2.43l-.31.7c-1.72-.23-3.39-1-4-2.22-.59,1.21-2.26,2-4,2.22Zm4.27,4c-1.73,0-2.78.43-2.78,1.18s1.05,1.19,2.78,1.19,2.78-.44,2.78-1.19S149.22,66.46,147.5,66.46Z"/><path class="cls-3" d="M156.73,64.83a2.63,2.63,0,1,1,2.78-2.63A2.61,2.61,0,0,1,156.73,64.83Zm0-.76a1.87,1.87,0,1,0-1.92-1.87A1.85,1.85,0,0,0,156.73,64.07Zm6.08,4.5v.73h-7.19V65.87h.87v2.7Zm-.34-1.89h-.87V58.83h.87Z"/><path class="cls-3" d="M173.72,60c0,3.07-1.47,5.8-5,7.53l-.47-.71c2.9-1.39,4.4-3.52,4.58-6.1h-4.1V60Zm3.15-1.17V69.54H176V58.8Z"/><path class="cls-3" d="M186.17,65.18a42.21,42.21,0,0,1-6.86.44l-.13-.72c.91,0,2,0,3.07,0v-.77c-1.27-.1-2.09-.68-2.09-1.57s1-1.59,2.52-1.59,2.53.61,2.53,1.59-.81,1.47-2.08,1.57v.74c1,0,2-.13,3-.26Zm-.36-4.68h-6.27v-.69h2.71V58.73h.88v1.08h2.68Zm-5.08,6h7.16v3H187V67.21h-6.28Zm2-3c1,0,1.71-.39,1.71-1s-.68-1-1.71-1-1.69.37-1.69,1S181.66,63.49,182.68,63.49Zm5.21-4.67V66H187V58.82Z"/><path class="cls-3" d="M196,65a4.51,4.51,0,0,1-2.62-2.46,4.57,4.57,0,0,1-2.72,2.72l-.47-.69A4,4,0,0,0,193,61.05v-.61h-2.45V59.7h5.73v.74h-2.41V61a3.76,3.76,0,0,0,2.64,3.29Zm3.26,3.55v.73h-7.13V66H193v2.58ZM198.1,61.8v-3H199V66.7h-.88V62.53h-2.23V61.8Z"/><path class="cls-3" d="M214.3,67.4v.74h-9.73V67.4H209V64.73h-3.24v-5h7.34v5h-3.23V67.4ZM206.59,64h5.66v-3.6h-5.66Z"/><path class="cls-3" d="M225.34,65.75h-4.45V69.5H220V65.75h-4.4V65h9.73Zm-1.24-2.18H217V59.44h7v.73h-6.09v2.66h6.24Z"/><path class="cls-3" d="M239.74,67.42v.73H230v-.73h4.42V65.05h-3.24V59.57h.86v2h5.64v-2h.85v5.48H235.3v2.37Zm-7.69-3.1h5.64v-2h-5.64Z"/><path class="cls-3" d="M246.68,60c0,3.07-1.47,5.8-5,7.53l-.47-.71c2.9-1.39,4.4-3.52,4.58-6.1h-4.1V60Zm3.15-1.17V69.54H249V58.8Z"/><path class="cls-3" d="M264.84,64.14v0l-9,4.62-.35-.67,7.76-4v0l-7.76-4,.35-.68Z"/></g></g></svg>