<svg xmlns="http://www.w3.org/2000/svg" viewBox="0 0 687.43 1097.16"><defs><style>.cls-1{fill:#e6cdb5;}.cls-2{fill:#252525;}.cls-3{fill:none;stroke:#252525;stroke-miterlimit:10;}.cls-4{fill:#e87f24;}</style></defs><title>mobile sub banner_1</title><g id="레이어_2" data-name="레이어 2"><g id="레이어_1-2" data-name="레이어 1"><rect class="cls-1" y="0.19" width="687.43" height="1096.97"/><path class="cls-2" d="M201.55,66.15v34c0,2.1.42,3,1.38,3.54v.42h-7.44v-.42c.9-.54,1.38-1.44,1.38-3.54V63.93L180.31,92.61h-.54L162.61,66.45V96.93c0,2.58,1.8,5.76,3.78,6.78v.42h-8v-.42c2-1,3.78-4.2,3.78-6.78V65.85l-2.7-3.72h5.4l17.22,26.58,15.3-26.58h5.58v.48C202,63.15,201.55,64,201.55,66.15Z"/><path class="cls-2" d="M215.17,103.71v.42h-7.44v-.42c.9-.54,1.32-1.44,1.32-3.54V79.89c0-2.1-.18-2.7-1.32-2.88v-.42l5.64-1.32h.42v24.9C213.79,102.27,214.21,103.17,215.17,103.71Zm-6.72-36.12a2.82,2.82,0,1,1,2.82,2.82A2.82,2.82,0,0,1,208.45,67.59Z"/><path class="cls-2" d="M248.83,103.71v.42H238.75v-.42c1-.42,1.8-1.5.42-3.42l-8-10.5-3.06,4c-4.2,5.46-5.52,8.76-3.06,10v.42h-7.5v-.42c3.6-1.56,5.58-4,9.9-9.72l3.48-4.5-7.38-9.66a11.36,11.36,0,0,0-4.92-4.08v-.48h10.08v.48c-1,.42-1.86,1.5-.36,3.48l6.24,8.22,1.38-1.8c4.2-5.4,5.52-8.76,3.12-9.9v-.48h7.44v.48c-3.6,1.5-5.58,4-9.9,9.66l-1.8,2.34,9,11.82A11.32,11.32,0,0,0,248.83,103.71Z"/><path class="cls-2" d="M281.28,103.71v.42H271.2v-.42c1-.42,1.8-1.5.42-3.42l-8-10.5-3.05,4c-4.21,5.46-5.52,8.76-3.07,10v.42H250v-.42c3.6-1.56,5.57-4,9.9-9.72l3.47-4.5L256,79.83a11.34,11.34,0,0,0-4.91-4.08v-.48h10.07v.48c-1,.42-1.85,1.5-.35,3.48l6.23,8.22,1.38-1.8c4.2-5.4,5.52-8.76,3.12-9.9v-.48H279v.48c-3.6,1.5-5.58,4-9.9,9.66l-1.8,2.34,9,11.82A11.25,11.25,0,0,0,281.28,103.71Z"/><path class="cls-2" d="M312.54,88.59c0,9.6-8.22,15.9-16.26,15.9s-15-4.92-15-13.32c0-9.9,8.22-15.9,16.26-15.9S312.54,80.31,312.54,88.59Zm-5-1.92c-2.1-7.2-7.74-12.3-14.58-10.32s-8.7,9.48-6.6,16.74,7.74,12.36,14.58,10.32S309.6,93.93,307.5,86.67Z"/><path class="cls-2" d="M349.44,103.41c5.94-.6,9.18-5.88,10.14-7.56l.36.18c-1.86,3.36-5.4,8-12.54,8.46-8.28.42-16.56-4.08-16.8-14-.3-10.38,9.12-15.24,15.72-15.24,3.42,0,8.22,1.56,11.34,3.18l-.9,5h-.36c-1.44-3.6-7.14-8.76-12.78-7.44-7.38,1.68-10.08,11.16-7.56,18.36C338.28,100.65,343.38,104,349.44,103.41Z"/><path class="cls-2" d="M394.8,88.59c0,9.6-8.22,15.9-16.26,15.9s-15-4.92-15-13.32c0-9.9,8.22-15.9,16.26-15.9S394.8,80.31,394.8,88.59Zm-5-1.92c-2.1-7.2-7.74-12.3-14.58-10.32s-8.7,9.48-6.6,16.74,7.74,12.36,14.58,10.32S391.86,93.93,389.76,86.67Z"/><path class="cls-2" d="M427,104.13h-6.12V89.55c-.78,6.78-2.82,14.94-10.62,14.94-5.52,0-9.9-3.48-9.9-10.56v-14c0-2.1-.18-2.7-1.32-2.88v-.42l5.64-1.32h.42V94.83c0,5.22,2.7,9.54,7.86,8.58,6.72-1.32,7.92-13.86,7.92-18.9V79.89c0-2.1-.18-2.7-1.32-2.88v-.42l5.64-1.32h.42v24.9c0,2.1.42,3,1.38,3.54Z"/><path class="cls-2" d="M460.92,87.09c.36,14.88-13.44,17.4-20.16,17.4a12.54,12.54,0,0,1-3.54-.54v10.32c0,2.09.18,2.69,1.32,2.87v.42l-5.64,1.32h-.42v-39c0-2.1-.18-2.7-1.32-2.88v-.42l5.64-1.32h.42V91.71c1.08-7,4.14-16.44,12.54-16.44C454.68,75.27,460.68,79.47,460.92,87.09Zm-4.68-.84c-.3-5.22-4-10.92-9.12-9.9-6.72,1.32-9.9,13.86-9.9,18.9v8.34a9.54,9.54,0,0,0,3.6.54C446.58,104.07,457.08,101.55,456.24,86.25Z"/><path class="cls-2" d="M496.44,88.59c0,9.6-8.22,15.9-16.26,15.9s-15-4.92-15-13.32c0-9.9,8.22-15.9,16.26-15.9S496.44,80.31,496.44,88.59Zm-5-1.92c-2.1-7.2-7.74-12.3-14.58-10.32s-8.7,9.48-6.6,16.74,7.74,12.36,14.58,10.32S493.5,93.93,491.4,86.67Z"/><path class="cls-2" d="M530.28,103.71v.42h-7.44v-.42c1-.54,1.2-1.56,1-3.54s-1.08-12.12-1.38-15.24c-.42-4.5-2.64-9.6-7.8-8.58-6.72,1.32-8,13.86-8,18.9v4.92c0,2.1.42,3,1.38,3.54v.42h-7.44v-.42c.9-.54,1.32-1.44,1.32-3.54V79.89c0-2.1-.18-2.7-1.32-2.88v-.42l5.64-1.32h.42V90.15c.78-6.72,2.82-14.88,10.62-14.88,4.92,0,9.12,3.36,9.84,10.56.6,5.82,1.2,12.12,1.44,14.34S529.38,103.17,530.28,103.71Z"/><path class="cls-3" d="M667.42.19c-52.75,126.8-177.82,216-323.71,216S72.75,127,20,.19"/><path d="M193.57,668.32l-1.47,1.44-5.53-5.47a13.57,13.57,0,0,1-1.33,2.11,12,12,0,0,1-1.52,1.63,12.89,12.89,0,0,1-1.46,1.17c-.49.31-.9.56-1.24.73l-1.41-1.58a8.74,8.74,0,0,0,2-1.18,10.53,10.53,0,0,0,2-2,11,11,0,0,0,1.48-2.81,10,10,0,0,0,.59-3.55v-2.22h2.22v2.22a14.18,14.18,0,0,1-.16,1.79,15.65,15.65,0,0,1-.33,1.63Zm7.35,13.45H187.18v-8.93h2.19v6.91h11.55Zm-.23-8.5h-2.16V655h2.16Z"/><path d="M229.4,670.48h-7.52v11.11h-2.16V670.48h-5.79v11.11h-2.18V670.48H205v-2H229.4ZM224,656.68a36.61,36.61,0,0,1-.44,6.12c-.3,1.68-.62,3.21-1,4.6h-2.16c.14-.6.28-1.26.43-2s.3-1.46.44-2.23.24-1.54.31-2.32.13-1.52.15-2.23h-12v-2Z"/><path d="M264.59,677.74H240.23v-2h9.39v-8.87h2.19v8.87h12.78Zm-5.09-14.2a35.31,35.31,0,0,1-.26,4.26,14.06,14.06,0,0,1-1.13,4h-2.27a15.43,15.43,0,0,0,1.21-4.23,33.45,33.45,0,0,0,.29-4.38v-3.17H245.1v-2h14.4Z"/><path d="M278.16,657a15.6,15.6,0,0,1-3,8,14.91,14.91,0,0,1-3,3.08,16.32,16.32,0,0,1-3.8,2.22l-1.49-1.56a14.62,14.62,0,0,0,6.1-4.32,13.41,13.41,0,0,0,1.69-2.71,12,12,0,0,0,.9-2.76h-7.37v-2Zm10.11,25.4h-2.13V675H274.73v-2h13.54Zm1.24-10.91h-2.14V664h-4.29v6.88h-2.19V655.67h2.19V662h4.29v-7h2.14Z"/><path d="M326.17,670.94H314.62v10.65H312.4V670.94H301.74v-2h24.43Zm-5.36-14.26a41.07,41.07,0,0,1-.43,6.35c-.29,1.84-.62,3.44-1,4.83h-2.13c.11-.54.25-1.16.4-1.86s.29-1.45.4-2.23H306.64v-2h11.72c.06-.56.11-1.1.16-1.63s.07-1,.07-1.51h-12v-2Z"/><path d="M332.53,664.34h3c0-.34,0-.7,0-1.06l-.06-1.1a12.78,12.78,0,0,0-.23-1.51,3.79,3.79,0,0,0-.49-1.19l1.84-.78a4.79,4.79,0,0,1,.71,1.61c.12.56.22,1.12.3,1.7,0,.42,0,.83.06,1.21s0,.76.06,1.12h4.37v-6.25h-9.27v-2h13.8v2h-2.37v6.25h2.6v2h-6v3h11.21v2H327.69v-2h11v-3h-6.19Zm14.57,17.31H333.22v-8h2.16v6H347.1Z"/><path d="M354.71,667.11h2.79c0-.65,0-1.34,0-2.05s0-1.23,0-1.58a9.65,9.65,0,0,0-.27-1.57,4.43,4.43,0,0,0-.45-1.14l1.85-.75a6.58,6.58,0,0,1,.66,1.39,7.55,7.55,0,0,1,.34,1.93q0,.63.06,1.71c0,.72,0,1.41,0,2.06h3V659h-7.52v-2H367v2h-2.16v8.15h2.62V669h-12.7Zm20.79,15.2h-2.13v-7.74H362v-2H375.5Zm1.24-10.8h-2.13v-7.68H371V671h-2.13v-15.3H371v6.2h3.57V655h2.13Z"/><path d="M407.5,674.28l-2,.33q-.92.17-2,.27c-.77.1-1.69.17-2.77.21s-2.43,0-4.06,0h-7.23v-1.93h7.09v-4h2.16v4a35.53,35.53,0,0,0,4.56-.23c1.57-.17,3-.39,4.31-.66Zm-3.63-3.54-5.19-3.46a18.56,18.56,0,0,1-3.68,2.3,18.94,18.94,0,0,1-3.11,1.21l-1.3-1.69a16.29,16.29,0,0,0,3.1-1.14,19.72,19.72,0,0,0,2.78-1.63,16.52,16.52,0,0,0,2.14-1.77,7.11,7.11,0,0,0,1.31-1.69H392V661h11a7.36,7.36,0,0,1-1,2.64,12.26,12.26,0,0,1-1.74,2.26l2.47,1.64,2.51,1.64Zm-2.19-11.55a8.25,8.25,0,0,1-.95.07h-1.15c-.43,0-.83,0-1.23,0l-1.05,0a12.38,12.38,0,0,1-2.13-.26,6.27,6.27,0,0,1-1.93-.75l.69-1.62a11.56,11.56,0,0,0,1.86.51,16.91,16.91,0,0,0,1.8.19c.25,0,.55,0,.91,0h1.08c.38,0,.76,0,1.12,0l1-.06Zm9,21.83h-2.16V655.07h2.16Z"/><path d="M427,672.75H416V658.81h9.8v2h-7.64v9.94H427ZM437.25,681h-2.16V666.36H431v12.82h-2.13V655.65H431v8.72h4.12V655h2.16Z"/><path d="M457.49,677.94h-2.24V659.62l-3.55,2.25v-2.11l3.89-2.41h1.9Z"/><path d="M476.53,671.83a6.46,6.46,0,0,1-1.79,4.44,5.94,5.94,0,0,1-2,1.36,6.68,6.68,0,0,1-2.66.51,7.6,7.6,0,0,1-2.69-.42,5.94,5.94,0,0,1-1.83-1.05,4,4,0,0,1-1-1.37,3.54,3.54,0,0,1-.32-1.4h2.65a2.57,2.57,0,0,0,.16.8,2.51,2.51,0,0,0,.53.85,3.26,3.26,0,0,0,1,.64,3.56,3.56,0,0,0,1.5.28,3.83,3.83,0,0,0,3-1.28,5.28,5.28,0,0,0,1.24-3.42,4.49,4.49,0,0,0-1.14-3.25,4.13,4.13,0,0,0-2.75-1.3,3.2,3.2,0,0,0-1.85.38,4.23,4.23,0,0,0-1.23,1.12H465l.52-11.17h9.79v2h-7.75l-.31,6.94a6.22,6.22,0,0,1,1.34-.64,5.28,5.28,0,0,1,1.91-.31,5.7,5.7,0,0,1,4.39,1.76A6.37,6.37,0,0,1,476.53,671.83Z"/><path d="M490.5,668.86H479.44V657.29H490.5Zm-2.16-1.9v-7.71H481.6V667Zm10.25,14.78H484.88V673.1h2.19v6.62h11.52Zm4.26-18.12h-4.66v9.88h-2.1V655h2.1v6.6h4.66Z"/><path d="M521.43,668.43c-.56.1-1.09.19-1.61.26s-1.1.16-1.73.23l-2.19.19c-.83.07-1.81.11-3,.13v4.18h-2.1v-4.15h-6.59V667.4h6.25c2.53,0,4.65-.09,6.36-.25a39,39,0,0,0,4.58-.68Zm-3.25-7.37a4.26,4.26,0,0,1-.51,2.12,4.4,4.4,0,0,1-1.37,1.51,6.06,6.06,0,0,1-2,.91,9.3,9.3,0,0,1-2.38.3,8.92,8.92,0,0,1-2.36-.3,6.25,6.25,0,0,1-1.93-.91,4.57,4.57,0,0,1-1.28-1.51,4.55,4.55,0,0,1,1.28-5.72,6.37,6.37,0,0,1,1.92-.94,8.28,8.28,0,0,1,2.37-.33,8.91,8.91,0,0,1,2.42.31,6.35,6.35,0,0,1,2,.9,4.28,4.28,0,0,1,1.82,3.66Zm-2.22,0a2.48,2.48,0,0,0-1.18-2.22,5.17,5.17,0,0,0-2.83-.75,5,5,0,0,0-2.73.72,2.45,2.45,0,0,0-1.13,2.22,2.54,2.54,0,0,0,1.13,2.29,4.88,4.88,0,0,0,2.73.74,5.41,5.41,0,0,0,2.81-.71A2.45,2.45,0,0,0,516,661.06Zm10,20.74H512.24v-7.26h2.16v5.24H526Zm-.26-6.89h-2.1v-2.7h-6v-1.88h6V655.07h2.1Z"/><path class="cls-2" d="M687.43,928.91V906.7a10,10,0,1,1,0-20.06v-20a10,10,0,1,1,0-20.06v-20a10,10,0,1,1,0-20.06v-20a10,10,0,0,1,0-20.06V744.09a30.3,30.3,0,0,1-30.3-30.29H30.29A30.29,30.29,0,0,1,0,744.09v22.22a10,10,0,0,1,0,20.06v20a10,10,0,0,1,0,20.06v20a10,10,0,0,1,0,20.06v20A10,10,0,0,1,0,906.7v22.21a30.3,30.3,0,0,1,30.29,30.3H657.13A30.31,30.31,0,0,1,687.43,928.91Z"/><path class="cls-4" d="M244.76,882v.45H237V882c1-.57,1.47-1.53,1.47-3.76v-32.1c0-4.15-.83-4.22-4.72-2.43l-.19-.38,9.76-5.56v40.47C243.29,880.44,243.8,881.4,244.76,882Z"/><path class="cls-4" d="M281.45,869.27c-.76,7-6.7,13.53-16.59,13.53a21.69,21.69,0,0,1-15-6.38l2.62-8h.45c1.21,8.55,6.25,13.47,11.61,13.66,8.3.32,11.62-6.57,11.93-12.51.58-10.85-7.53-17.36-20.61-12a3.06,3.06,0,0,1-.19-.44L259,837.74h15.95c2.62,0,4.22-.63,5.11-2.8h.45l-1,7.59h-20.8L256.18,857C268.56,850.7,282.73,857.21,281.45,869.27Z"/><path class="cls-4" d="M320.89,860c0,13.53-7.85,22.85-17.42,22.85C294.4,882.8,286,872.53,286,860c0-13.4,7.73-22.84,17.43-22.84C312.53,837.11,320.89,847.32,320.89,860Zm-5.75-5.23c-2.48-11.23-8.55-19.08-16.4-16.08s-9.44,15.25-6.95,26.48,8.61,19.15,16.33,16.15C316.1,878.21,317.63,866,315.14,854.72Z"/><path class="cls-4" d="M332.24,879.29c0,3.51-2.17,6.57-5.68,9.45l-.38-.32c2.55-2.17,4.21-4.15,5-6.58a3.54,3.54,0,0,1-2.36,1,3.48,3.48,0,0,1-3.45-3.51,3.45,3.45,0,1,1,6.89,0Z"/><path class="cls-4" d="M371.55,860c0,13.53-7.85,22.85-17.42,22.85-9.06,0-17.42-10.27-17.42-22.85,0-13.4,7.72-22.84,17.42-22.84C363.19,837.11,371.55,847.32,371.55,860Zm-5.74-5.23c-2.49-11.23-8.55-19.08-16.4-16.08s-9.45,15.25-7,26.48,8.62,19.15,16.34,16.15C366.77,878.21,368.3,866,365.81,854.72Z"/><path class="cls-4" d="M411.5,860c0,13.53-7.85,22.85-17.43,22.85-9.06,0-17.42-10.27-17.42-22.85,0-13.4,7.72-22.84,17.42-22.84C403.14,837.11,411.5,847.32,411.5,860Zm-5.75-5.23c-2.49-11.23-8.55-19.08-16.4-16.08s-9.44,15.25-7,26.48,8.61,19.15,16.33,16.15C406.71,878.21,408.24,866,405.75,854.72Z"/><path class="cls-4" d="M451.44,860c0,13.53-7.85,22.85-17.42,22.85-9.06,0-17.42-10.27-17.42-22.85,0-13.4,7.72-22.84,17.42-22.84C443.08,837.11,451.44,847.32,451.44,860Zm-5.74-5.23c-2.49-11.23-8.55-19.08-16.4-16.08s-9.45,15.25-7,26.48,8.62,19.15,16.34,16.15C446.66,878.21,448.19,866,445.7,854.72Z"/><path class="cls-4" d="M215.34,786.68v15.5c0,1,.2,1.37.63,1.62V804h-3.39v-.19c.41-.25.63-.66.63-1.62V785.66l-7.55,13.08h-.24l-7.82-11.93v13.9a3.91,3.91,0,0,0,1.72,3.09V804h-3.67v-.19a3.89,3.89,0,0,0,1.73-3.09V786.54l-1.23-1.7h2.46L206.46,797l7-12.12H216v.22C215.54,785.31,215.34,785.69,215.34,786.68Z"/><path class="cls-4" d="M221.55,803.8V804h-3.39v-.19c.41-.25.6-.66.6-1.62v-9.24c0-1-.08-1.23-.6-1.31v-.19l2.57-.61h.19v11.35C220.92,803.14,221.11,803.55,221.55,803.8Zm-3.06-16.47a1.29,1.29,0,1,1,1.29,1.29A1.28,1.28,0,0,1,218.49,787.33Z"/><path class="cls-4" d="M236.89,803.8V804H232.3v-.19c.44-.2.82-.69.19-1.56l-3.64-4.79-1.39,1.81c-1.92,2.49-2.52,4-1.4,4.54V804h-3.41v-.19c1.64-.72,2.54-1.84,4.51-4.43l1.58-2-3.36-4.41a5.23,5.23,0,0,0-2.24-1.86v-.22h4.59v.22c-.44.19-.84.69-.16,1.59l2.84,3.74.63-.81c1.92-2.47,2.52-4,1.42-4.52v-.22h3.39v.22c-1.64.69-2.54,1.83-4.51,4.41l-.82,1.06,4.1,5.39A5.23,5.23,0,0,0,236.89,803.8Z"/><path class="cls-4" d="M251.69,803.8V804h-4.6v-.19c.44-.2.83-.69.2-1.56l-3.64-4.79-1.4,1.81c-1.91,2.49-2.51,4-1.39,4.54V804h-3.42v-.19c1.64-.72,2.54-1.84,4.51-4.43l1.59-2-3.36-4.41a5.26,5.26,0,0,0-2.25-1.86v-.22h4.6v.22c-.44.19-.85.69-.17,1.59l2.85,3.74.63-.81c1.91-2.47,2.51-4,1.42-4.52v-.22h3.39v.22c-1.64.69-2.54,1.83-4.51,4.41l-.82,1.06,4.1,5.39A5.18,5.18,0,0,0,251.69,803.8Z"/><path class="cls-4" d="M265.94,796.9a7.36,7.36,0,0,1-7.41,7.25c-3.7,0-6.84-2.24-6.84-6.07a7.27,7.27,0,0,1,7.41-7.25C262.76,790.83,265.94,793.13,265.94,796.9Zm-2.3-.87c-1-3.28-3.53-5.61-6.65-4.7s-4,4.32-3,7.63,3.52,5.63,6.64,4.7S264.6,799.34,263.64,796Z"/><path class="cls-4" d="M297.71,790.1l-3.88,11.51.93,2.38H292.6l-5.36-13.89-.33-.74-4.13,12.25.91,2.38h-2.14l-5.36-13.89a16.55,16.55,0,0,0-2.87-5v-.22h4.21v.22c-.71.71-.49,1.67.28,3.67l4.86,12.58,3.8-11.21c.11-.36.22-.72.33-1a14.69,14.69,0,0,0-2.43-4v-.22h4.21v.22c-.71.71-.49,1.67.27,3.67l4.87,12.58,3.8-11.21c.85-2.49.93-3.81-.24-5v-.22h3.25v.22A12.14,12.14,0,0,0,297.71,790.1Z"/><path class="cls-4" d="M313.3,799.64c-.16,1.94-1.88,4.51-5.77,4.51s-7.41-1.86-7.52-6.37c-.13-4.73,4.16-6.78,7.17-6.95,2.32-.11,5.52,1,5.9,4.32h-2.54A4,4,0,0,1,313.3,799.64Zm-3.88-4.49h-7.08a7.82,7.82,0,0,0,.19,4.38,5.5,5.5,0,0,0,5.85,4,4.79,4.79,0,0,0,4.68-3.86C313.39,796.85,311.5,795.15,309.42,795.15Zm-7-.21h8.73a4.38,4.38,0,0,0-5.17-3.78A4.81,4.81,0,0,0,302.39,794.94Z"/><path class="cls-4" d="M318.61,803.8V804h-3.37v-.19c.42-.25.61-.66.61-1.62v-15.8c0-1-.09-1.23-.61-1.32v-.22l2.58-.57H318v17.91C318,803.14,318.2,803.55,318.61,803.8Z"/><path class="cls-4" d="M329.14,803.66c2.71-.27,4.18-2.68,4.62-3.45l.16.09a6.79,6.79,0,0,1-5.71,3.85c-3.78.19-7.55-1.86-7.66-6.37-.14-4.73,4.16-6.95,7.17-6.95a13,13,0,0,1,5.16,1.45l-.41,2.27h-.16c-.66-1.64-3.25-4-5.83-3.39-3.36.77-4.59,5.09-3.44,8.37A5.72,5.72,0,0,0,329.14,803.66Z"/><path class="cls-4" d="M349.81,796.9a7.36,7.36,0,0,1-7.41,7.25c-3.69,0-6.84-2.24-6.84-6.07a7.27,7.27,0,0,1,7.41-7.25C346.64,790.83,349.81,793.13,349.81,796.9Zm-2.3-.87c-.95-3.28-3.52-5.61-6.64-4.7s-4,4.32-3,7.63,3.53,5.63,6.65,4.7S348.47,799.34,347.51,796Z"/><path class="cls-4" d="M372.48,803.8V804h-3.36v-.19c.41-.25.55-.72.46-1.62s-.49-5.52-.63-6.94c-.21-2-1-4.38-3.14-3.91-2.52.54-2.84,4.78-2.87,7.65v3.2c0,1,.19,1.37.6,1.62V804h-3.36v-.19c.41-.25.6-.66.6-1.62v-6.94c0-2.08-1-4.32-3.09-3.91-3.06.57-3.2,6.29-3.2,8.61v2.24c0,1,.22,1.37.63,1.62V804h-3.39v-.19c.41-.25.63-.66.63-1.62v-9.24c0-1-.09-1.23-.63-1.31v-.19l2.57-.61h.19v6.07c.3-2.89,1.12-6.07,4.4-6.07,2.11,0,3.91,1.81,4,4.82l0,.3c.33-2.66,1.34-5.12,4.1-5.12,2.16,0,3.69,1.62,4,4.82.3,2.65.55,5.52.66,6.53S372.07,803.55,372.48,803.8Z"/><path class="cls-4" d="M387.17,799.64c-.17,1.94-1.89,4.51-5.77,4.51s-7.41-1.86-7.52-6.37c-.14-4.73,4.15-6.78,7.16-6.95,2.33-.11,5.53,1,5.91,4.32h-2.54A4,4,0,0,1,387.17,799.64Zm-3.88-4.49H376.2a8,8,0,0,0,.19,4.38,5.51,5.51,0,0,0,5.86,4,4.77,4.77,0,0,0,4.67-3.86C387.25,796.85,385.36,795.15,383.29,795.15Zm-7-.21H385a4.38,4.38,0,0,0-5.17-3.78A4.8,4.8,0,0,0,376.26,794.94Z"/><path class="cls-4" d="M414.13,798.57a9.2,9.2,0,0,1-8.94,5.58,10,10,0,0,1-10.06-9.79c0-5.41,4.89-9.79,10.31-9.79a11.42,11.42,0,0,1,7.05,2.3l-.82,3.12h-.19c-2-3.18-5.25-5.53-8.83-4.76-4.68,1-6.37,6.53-4.9,11.37s5.42,7.33,10.23,6.59a8,8,0,0,0,6-4.7Z"/><path class="cls-4" d="M430,796.9a7.35,7.35,0,0,1-7.41,7.25c-3.69,0-6.84-2.24-6.84-6.07a7.27,7.27,0,0,1,7.42-7.25C426.85,790.83,430,793.13,430,796.9Zm-2.3-.87c-1-3.28-3.52-5.61-6.64-4.7s-4,4.32-3,7.63,3.53,5.63,6.65,4.7S428.68,799.34,427.72,796Z"/><path class="cls-4" d="M444.68,804h-2.79v-6.65c-.35,3.09-1.28,6.81-4.84,6.81-2.52,0-4.51-1.58-4.51-4.81v-6.4c0-1-.08-1.23-.6-1.31v-.19l2.57-.61h.19v8.92c0,2.38,1.23,4.35,3.58,3.91,3.06-.6,3.61-6.32,3.61-8.61v-2.11c0-1-.08-1.23-.6-1.31v-.19l2.57-.61h.19v11.35c0,1,.19,1.37.63,1.62Z"/><path class="cls-4" d="M460.16,796.22c.16,6.78-6.13,7.93-9.19,7.93a5.93,5.93,0,0,1-1.61-.24v4.7c0,1,.08,1.23.6,1.31v.19l-2.57.6h-.19V792.94c0-1-.09-1.23-.61-1.31v-.19l2.57-.61h.2v7.5c.49-3.18,1.88-7.5,5.71-7.5A5.36,5.36,0,0,1,460.16,796.22Zm-2.13-.38c-.14-2.38-1.81-5-4.16-4.51-3.06.6-4.51,6.31-4.51,8.61v3.8A4.1,4.1,0,0,0,451,804C453.62,804,458.41,802.81,458,795.84Z"/><path class="cls-4" d="M476.35,796.9a7.36,7.36,0,0,1-7.41,7.25c-3.7,0-6.84-2.24-6.84-6.07a7.27,7.27,0,0,1,7.41-7.25C473.18,790.83,476.35,793.13,476.35,796.9Zm-2.3-.87c-1-3.28-3.53-5.61-6.64-4.7s-4,4.32-3,7.63,3.53,5.63,6.64,4.7S475,799.34,474.05,796Z"/><path class="cls-4" d="M491.77,803.8V804h-3.39v-.19c.44-.25.55-.72.47-1.62s-.5-5.52-.63-6.94c-.2-2-1.21-4.38-3.56-3.91-3.06.6-3.64,6.31-3.64,8.61v2.24c0,1,.2,1.37.63,1.62V804h-3.39v-.19c.41-.25.6-.66.6-1.62v-9.24c0-1-.08-1.23-.6-1.31v-.19l2.57-.61H481v6.79c.36-3.07,1.29-6.79,4.85-6.79,2.24,0,4.15,1.54,4.48,4.82.27,2.65.55,5.52.66,6.53S491.36,803.55,491.77,803.8Z"/><path d="M137.23,295.83h2.1v4.75h11.09v2H126.11v-2h11.12Zm8.81-.54H130.29v-1.93h3.23c0-.68,0-1.42,0-2.24s0-1.45,0-1.91a14.82,14.82,0,0,0-.23-1.51,3.84,3.84,0,0,0-.49-1.2l1.84-.78a4.83,4.83,0,0,1,.71,1.62c.12.55.22,1.12.3,1.7s.06,1.22.07,2.06,0,1.58,0,2.26h5v-8.3h-10.2v-2h15.29v2h-2.93v8.3H146Z"/><path d="M176.34,302.54H152v-2h10.88v-4.5h-5.76V282.67h13.31v2H159.26v3.63h11v2h-11v3.81h11.35v2h-5.56v4.5h11.29Z"/><path d="M193.76,298.37H179.68v-8.5H188v-4.46h-8.47v-1.93h10.71v8.38h-8.38v4.55h11.89Zm5,7.48h-2.13V279.91h2.13Z"/><path d="M226.74,297.36h-7.2v9h-2.19v-9h-5.73v9h-2.16v-9H202.4v-2h24.34ZM221,292.43h-13.3V281.35h2.13v3.51h9v-3.51H221Zm-2.16-2v-3.6h-9v3.6Z"/><path d="M251.8,293.13l-1.5,1.41-2.54-2.22-2.5-2.22a19.19,19.19,0,0,1-3,2.67,16.85,16.85,0,0,1-3.31,1.85L237.51,293a14.66,14.66,0,0,0,3.36-1.8,19.19,19.19,0,0,0,2.72-2.37,15,15,0,0,0,1.91-2.57,9.29,9.29,0,0,0,1.05-2.42H239.1v-2h10.16a12,12,0,0,1-.86,3.42,15.15,15.15,0,0,1-1.79,3.18Zm5.61,14.11h-2.16v-7.43H243.91v-2h13.5Zm5-18.75h-4.66v8.09H255.6V279.91h2.16v6.59h4.66Z"/><path d="M277.31,292.61l-1.47,1.44-5.53-5.47a12.8,12.8,0,0,1-1.34,2.1,12.34,12.34,0,0,1-1.51,1.61,9.87,9.87,0,0,1-1.47,1.18,13.39,13.39,0,0,1-1.23.72l-1.42-1.55a8.24,8.24,0,0,0,2-1.2,11.22,11.22,0,0,0,2-2,11.54,11.54,0,0,0,1.48-2.79,10.05,10.05,0,0,0,.59-3.57v-1.91h2.22v1.91a14.51,14.51,0,0,1-.16,1.8,16,16,0,0,1-.33,1.62Zm7.37,9.24a5,5,0,0,1-.51,2.26,5.84,5.84,0,0,1-1.39,1.77,6.36,6.36,0,0,1-2,1.13,7.27,7.27,0,0,1-2.42.4,7.65,7.65,0,0,1-2.52-.4,6.15,6.15,0,0,1-2-1.16,5.1,5.1,0,0,1-1.35-1.77,5,5,0,0,1-.49-2.23,4.7,4.7,0,0,1,.5-2.16,5.51,5.51,0,0,1,1.4-1.76,6.66,6.66,0,0,1,2-1.18,7.13,7.13,0,0,1,2.45-.43,7.37,7.37,0,0,1,2.45.41,5.87,5.87,0,0,1,2,1.15,5.49,5.49,0,0,1,1.39,1.74A4.94,4.94,0,0,1,284.68,301.85Zm-2.21,0a3.2,3.2,0,0,0-1.17-2.66,4.58,4.58,0,0,0-3-.94,4.25,4.25,0,0,0-2.95,1,3.31,3.31,0,0,0-1.14,2.55,3.25,3.25,0,0,0,1.18,2.67,4.47,4.47,0,0,0,2.91,1,4.41,4.41,0,0,0,2.94-1A3.23,3.23,0,0,0,282.47,301.85Zm2.56-6.16H282.9v-8h-6.28v-2h6.28v-5.81H285Z"/><path d="M302.28,296.24l-1.47,1.49-6.25-5.9a12.48,12.48,0,0,1-2.82,3.8,17.13,17.13,0,0,1-3.08,2.28l-1.38-1.62a12.67,12.67,0,0,0,2.83-2,12.1,12.1,0,0,0,2-2.45,11,11,0,0,0,1.16-2.65,9.6,9.6,0,0,0,.39-2.68v-3.86H296v3.26a13.41,13.41,0,0,1-.15,2,12.57,12.57,0,0,1-.4,1.85Zm6.65,9.64H306.8V279.93h2.13Z"/><path d="M340.67,299.14l-2,.34c-.62.1-1.3.19-2.05.27s-1.69.16-2.76.2-2.43.06-4.06.06h-7.23v-1.93h7.08v-4h2.16v4a37.7,37.7,0,0,0,4.57-.23c1.56-.17,3-.4,4.3-.66ZM337,295.6l-5.18-3.45a18.63,18.63,0,0,1-3.69,2.3,18.28,18.28,0,0,1-3.11,1.21l-1.29-1.7a16.46,16.46,0,0,0,3.09-1.14,20.09,20.09,0,0,0,2.78-1.62,15.9,15.9,0,0,0,2.15-1.78,7.15,7.15,0,0,0,1.31-1.68h-7.92v-1.9h11a7.44,7.44,0,0,1-1,2.63,12.77,12.77,0,0,1-1.75,2.26l2.48,1.65,2.5,1.64Zm-2.19-11.55a7.7,7.7,0,0,1-1,.08h-1.15c-.42,0-.83,0-1.22,0l-1,0a11.46,11.46,0,0,1-2.13-.26,5.72,5.72,0,0,1-1.93-.75l.69-1.61a10.48,10.48,0,0,0,1.86.5,16.43,16.43,0,0,0,1.79.19c.25,0,.56,0,.91,0h1.08c.39,0,.76,0,1.13,0l1-.06Zm9,21.83h-2.16V279.93h2.16Z"/><path d="M360.2,297.62H349.14V283.68h9.79v2H351.3v9.93h8.9Zm10.22,8.23h-2.16V291.22h-4.12V304H362V280.51h2.13v8.73h4.12v-9.33h2.16Z"/><path d="M395.16,297.13a6.58,6.58,0,0,1-.4,2.32,5.15,5.15,0,0,1-1.18,1.85,5.41,5.41,0,0,1-1.93,1.27A7,7,0,0,1,389,303a8.77,8.77,0,0,1-2.62-.34,5.66,5.66,0,0,1-1.85-.95,4.16,4.16,0,0,1-1.15-1.34,4.37,4.37,0,0,1-.49-1.6h2.51a1.87,1.87,0,0,0,.2.79,2.29,2.29,0,0,0,.63.82,3,3,0,0,0,1,.66,4.22,4.22,0,0,0,1.6.26,3.51,3.51,0,0,0,2.9-1.22,4.83,4.83,0,0,0,1-3.13,3.68,3.68,0,0,0-.52-2,4,4,0,0,0-1.27-1.27,5.87,5.87,0,0,0-1.67-.62,8.29,8.29,0,0,0-1.64-.18v-1.7a5.31,5.31,0,0,0,3.73-1.08,3.53,3.53,0,0,0,1.14-2.67,3.65,3.65,0,0,0-1-2.62,3.23,3.23,0,0,0-2.41-1,3.75,3.75,0,0,0-2.63.8,2.85,2.85,0,0,0-1,1.67h-2.27a3.15,3.15,0,0,1,.33-1.29,4.37,4.37,0,0,1,1-1.36,6,6,0,0,1,1.8-1.06,7,7,0,0,1,2.61-.43,6.33,6.33,0,0,1,4,1.38,5.52,5.52,0,0,1,1.31,1.67,4.77,4.77,0,0,1,.5,2.24,4.06,4.06,0,0,1-.38,1.79,5.4,5.4,0,0,1-2.13,2.29,4.1,4.1,0,0,1-1.11.47V292a9.79,9.79,0,0,1,1.21.46,4.56,4.56,0,0,1,1.29.9,5.43,5.43,0,0,1,1,1.52A5.28,5.28,0,0,1,395.16,297.13Z"/><path d="M409.27,293.73H398.21V282.15h11.06Zm-2.16-1.9v-7.72h-6.74v7.72Zm10.26,14.77H403.66V298h2.19v6.63h11.52Zm4.26-18.11H417v9.88h-2.1V279.88H417v6.59h4.67Z"/><path d="M440.2,293.3l-1.61.26-1.73.23-2.19.18c-.82.07-1.81.12-3,.13v4.18h-2.1v-4.15H423v-1.87h6.25c2.53,0,4.66-.08,6.36-.24a41.2,41.2,0,0,0,4.58-.68ZM437,285.93a4.33,4.33,0,0,1-.5,2.11,4.51,4.51,0,0,1-1.37,1.51,5.82,5.82,0,0,1-2,.91,9.22,9.22,0,0,1-2.37.3,8.87,8.87,0,0,1-2.36-.3,5.74,5.74,0,0,1-1.93-.91,4.25,4.25,0,0,1-1.28-1.51,4.86,4.86,0,0,1,0-4.17,4.38,4.38,0,0,1,1.3-1.54,5.78,5.78,0,0,1,1.91-.94,8.3,8.3,0,0,1,2.38-.33,9.38,9.38,0,0,1,2.42.3,6,6,0,0,1,2,.91,4.28,4.28,0,0,1,1.82,3.66Zm-2.22,0a2.46,2.46,0,0,0-1.18-2.22,5.16,5.16,0,0,0-2.82-.75,5,5,0,0,0-2.74.72,2.45,2.45,0,0,0-1.12,2.22,2.54,2.54,0,0,0,1.12,2.29,4.89,4.89,0,0,0,2.74.73,5.36,5.36,0,0,0,2.81-.71A2.45,2.45,0,0,0,434.73,285.93Zm10,20.73H431V299.4h2.16v5.25h11.6Zm-.26-6.88h-2.1v-2.71h-6.05V295.2h6.05V279.93h2.1Z"/><path d="M472,286.47h-6a5.76,5.76,0,0,0-2.49.42,4.2,4.2,0,0,0-1.46,1.2,2.55,2.55,0,0,0-.46,1,3.81,3.81,0,0,0-.11,1.12,3.73,3.73,0,0,0,.31,1.14,2.64,2.64,0,0,0,.81,1,3.38,3.38,0,0,0,2.36.74,3.5,3.5,0,0,0,2.19-1,2.51,2.51,0,0,0,.52-.81,2.66,2.66,0,0,0,.2-1,2.4,2.4,0,0,0-.23-1,2,2,0,0,0-.75-.84l1.53-1.29a3.42,3.42,0,0,1,1,1.06,3.88,3.88,0,0,1,.52,1.5,4.94,4.94,0,0,1-.09,1.7A4.5,4.5,0,0,1,469,293a4,4,0,0,1-1.48,1.21,5.69,5.69,0,0,1-2,.57,6.29,6.29,0,0,1-2.16-.07,4.94,4.94,0,0,1-4.06-4,4.38,4.38,0,0,1,.05-1.73,4.76,4.76,0,0,1,.67-1.56,3.17,3.17,0,0,1,.4-.46,3,3,0,0,1,.66-.49h-4v-1.93H472Zm-3.23-3.57c-1.15.08-2.15.12-3,.12s-1.7,0-2.54-.09a7.44,7.44,0,0,1-1.85-.32,5.25,5.25,0,0,1-1.47-.69l.66-1.64a8.48,8.48,0,0,0,1.37.46,8.75,8.75,0,0,0,1.49.23c.84.06,1.68.09,2.5.09s1.78,0,2.85-.12Zm8.76,24H464v-6.33h10.54v-2.25H463.88v-1.93h12.93v6.08H466.33v2.36h11.2Zm4.55-18.2h-4.64v6.57h-2.1V279.88h2.1v6.79h4.64Z"/><path d="M496.1,287.83a5.41,5.41,0,0,1-.51,2.34,6.74,6.74,0,0,1-1.39,1.92,6.31,6.31,0,0,1-2,1.27,6.55,6.55,0,0,1-2.39.46,6.32,6.32,0,0,1-4.32-1.7,6.08,6.08,0,0,1-1.33-1.9,5.9,5.9,0,0,1-.49-2.39,5.89,5.89,0,0,1,1.79-4.24,6.58,6.58,0,0,1,2-1.28,6,6,0,0,1,2.39-.47,6.69,6.69,0,0,1,2.45.44,6.33,6.33,0,0,1,2,1.26,6.16,6.16,0,0,1,1.34,1.9A5.56,5.56,0,0,1,496.1,287.83Zm-2.18,0a3.68,3.68,0,0,0-.34-1.54,4.55,4.55,0,0,0-.9-1.32,4.36,4.36,0,0,0-1.3-.87,3.89,3.89,0,0,0-1.58-.33,3.7,3.7,0,0,0-1.56.33A4.48,4.48,0,0,0,487,285a4,4,0,0,0-.84,1.29,3.85,3.85,0,0,0-.31,1.54,4.33,4.33,0,0,0,.29,1.57,3.65,3.65,0,0,0,.84,1.28,3.52,3.52,0,0,0,1.25.89,4.21,4.21,0,0,0,4.53-.86A3.89,3.89,0,0,0,493.92,287.83Zm10.56,18.83H490.72v-8.93h2.19v6.92h11.57Zm-.31-8.21H502V279.93h2.16Z"/><path d="M541.87,295.8H530.32v10.66H528.1V295.8H517.44v-2h24.43Zm-5.36-14.25a41.17,41.17,0,0,1-.43,6.35c-.29,1.83-.62,3.44-1,4.82H533c.11-.54.25-1.15.4-1.86s.29-1.44.4-2.23H522.34v-2h11.72c.06-.56.11-1.1.16-1.63s.07-1,.07-1.51h-12v-2Z"/><path d="M548.23,289.21h3c0-.35,0-.7,0-1.07l-.06-1.09a12.47,12.47,0,0,0-.23-1.51,3.84,3.84,0,0,0-.49-1.2l1.84-.78a4.83,4.83,0,0,1,.71,1.62c.12.55.22,1.12.3,1.7,0,.42,0,.82.06,1.21l.06,1.12h4.37V283h-9.27v-2h13.79v2h-2.36v6.25h2.59v2h-6v3.05h11.21v2H543.39v-2h11V291.2h-6.19Zm14.57,17.31H548.92v-8h2.16v6H562.8Z"/><path class="cls-2" d="M687.43,552.29V530.07a10,10,0,1,1,0-20.06V490a10,10,0,1,1,0-20.06v-20a10,10,0,1,1,0-20.06V409.74a10,10,0,1,1,0-20.06V367.47a30.31,30.31,0,0,1-30.3-30.3H30.29A30.3,30.3,0,0,1,0,367.47v22.21a10,10,0,0,1,0,20.06v20.05a10,10,0,0,1,0,20.06v20A10,10,0,0,1,0,490V510a10,10,0,0,1,0,20.06v22.22a30.29,30.29,0,0,1,30.29,30.29H657.13A30.3,30.3,0,0,1,687.43,552.29Z"/><path class="cls-4" d="M274.18,494.37c-.83,5.55-6.7,11.8-15.89,11.8a23.25,23.25,0,0,1-15.64-6.38l2.56-8h.51c1.21,8.56,6.89,13.53,12.25,13.66,7.66.26,10.72-5.23,11.23-10.78.9-9.19-4.72-16.09-15.06-12.32a3.43,3.43,0,0,1-.19-.45c7.66-2.74,12.13-7.4,11.87-13.21-.19-4.91-2.62-7.59-6.51-7.59-5.3,0-10.34,3.7-11.55,12.31h-.45l-2.61-6.63a22.66,22.66,0,0,1,14.93-6.32c6.83,0,11,3.25,11,8.55,0,8-8.55,10.21-13.59,12C266.71,478.41,275.78,484.35,274.18,494.37Z"/><path class="cls-4" d="M313.68,483.33c0,13.53-7.85,22.84-17.42,22.84-9.07,0-17.43-10.27-17.43-22.84,0-13.4,7.73-22.85,17.43-22.85C305.32,460.48,313.68,470.69,313.68,483.33Zm-5.74-5.24c-2.49-11.23-8.56-19.08-16.41-16.08s-9.44,15.25-6.95,26.49,8.61,19.14,16.34,16.14C308.89,501.58,310.42,489.39,307.94,478.09Z"/><path class="cls-4" d="M325,502.66c0,3.51-2.17,6.58-5.68,9.45l-.38-.32c2.55-2.17,4.21-4.15,5-6.57a3.58,3.58,0,0,1-2.36.95,3.48,3.48,0,0,1-3.45-3.51,3.45,3.45,0,0,1,6.89,0Z"/><path class="cls-4" d="M364.34,483.33c0,13.53-7.85,22.84-17.42,22.84-9.06,0-17.42-10.27-17.42-22.84,0-13.4,7.72-22.85,17.42-22.85C356,460.48,364.34,470.69,364.34,483.33Zm-5.74-5.24c-2.49-11.23-8.55-19.08-16.4-16.08s-9.45,15.25-7,26.49,8.62,19.14,16.34,16.14C359.56,501.58,361.09,489.39,358.6,478.09Z"/><path class="cls-4" d="M404.29,483.33c0,13.53-7.85,22.84-17.42,22.84-9.07,0-17.43-10.27-17.43-22.84,0-13.4,7.73-22.85,17.43-22.85C395.93,460.48,404.29,470.69,404.29,483.33Zm-5.75-5.24C396.06,466.86,390,459,382.14,462s-9.44,15.25-6.95,26.49,8.61,19.14,16.33,16.14C399.5,501.58,401,489.39,398.54,478.09Z"/><path class="cls-4" d="M444.23,483.33c0,13.53-7.85,22.84-17.42,22.84-9.06,0-17.42-10.27-17.42-22.84,0-13.4,7.72-22.85,17.42-22.85C435.87,460.48,444.23,470.69,444.23,483.33Zm-5.74-5.24C436,466.86,429.94,459,422.09,462s-9.45,15.25-7,26.49,8.62,19.14,16.34,16.14C439.45,501.58,441,489.39,438.49,478.09Z"/><path class="cls-4" d="M237.09,410.05v15.51c0,.95.19,1.36.63,1.61v.19h-3.4v-.19c.41-.25.63-.66.63-1.61V409l-7.54,13.07h-.25l-7.82-11.92v13.89a3.88,3.88,0,0,0,1.72,3.09v.19H217.4v-.19a3.88,3.88,0,0,0,1.72-3.09V409.91l-1.23-1.69h2.46l7.85,12.11,7-12.11h2.55v.22C237.28,408.68,237.09,409.07,237.09,410.05Z"/><path class="cls-4" d="M243.29,427.17v.19H239.9v-.19c.41-.25.61-.66.61-1.61v-9.25c0-.95-.09-1.23-.61-1.31v-.19l2.57-.6h.2v11.35C242.67,426.51,242.86,426.92,243.29,427.17Zm-3.06-16.46a1.29,1.29,0,1,1,2.57,0,1.29,1.29,0,0,1-2.57,0Z"/><path class="cls-4" d="M258.64,427.17v.19H254v-.19c.44-.19.82-.68.19-1.56l-3.63-4.78-1.4,1.8c-1.91,2.49-2.51,4-1.39,4.54v.19h-3.42v-.19c1.64-.71,2.54-1.83,4.51-4.43l1.59-2.05-3.37-4.4a5.09,5.09,0,0,0-2.24-1.86v-.22h4.59v.22c-.43.19-.84.68-.16,1.58l2.84,3.75.63-.82c1.92-2.46,2.52-4,1.43-4.51v-.22h3.39v.22c-1.64.68-2.55,1.83-4.52,4.4l-.82,1.07,4.11,5.38A5.11,5.11,0,0,0,258.64,427.17Z"/><path class="cls-4" d="M273.43,427.17v.19h-4.59v-.19c.43-.19.82-.68.19-1.56l-3.64-4.78-1.39,1.8c-1.92,2.49-2.52,4-1.4,4.54v.19h-3.42v-.19c1.64-.71,2.55-1.83,4.51-4.43l1.59-2.05-3.36-4.4a5.15,5.15,0,0,0-2.24-1.86v-.22h4.59v.22c-.44.19-.85.68-.16,1.58l2.84,3.75.63-.82c1.91-2.46,2.51-4,1.42-4.51v-.22h3.39v.22c-1.64.68-2.54,1.83-4.51,4.4l-.82,1.07,4.1,5.38A5.11,5.11,0,0,0,273.43,427.17Z"/><path class="cls-4" d="M287.68,420.28a7.36,7.36,0,0,1-7.41,7.24c-3.69,0-6.84-2.24-6.84-6.07a7.26,7.26,0,0,1,7.41-7.24C284.51,414.21,287.68,416.5,287.68,420.28Zm-2.3-.88c-1-3.28-3.53-5.6-6.64-4.7s-4,4.32-3,7.63,3.53,5.63,6.64,4.7S286.34,422.71,285.38,419.4Z"/><path class="cls-4" d="M309,413.82c0,3.86-3.58,5.58-9,5.58h-1.34v6.16c0,.95.19,1.36.6,1.61v.19h-3.39v-.19c.44-.25.63-.66.63-1.61V410.05c0-1-.19-1.37-.63-1.61v-.22H300C305.4,408.22,309,409.94,309,413.82Zm-2.16,0c0-3.22-1.89-5.38-6.81-5.38h-1.34v10.74H300C304.93,419.18,306.82,417,306.82,413.82Z"/><path class="cls-4" d="M324.41,427.17v.19H321v-.19c.41-.25.55-.71.47-1.61s-.5-5.53-.63-6.95c-.22-2.05-1.23-4.38-3.58-3.91-3.07.6-3.61,6.32-3.61,8.61v2.25c0,.95.19,1.36.6,1.61v.19H310.9v-.19c.43-.25.63-.66.63-1.61V409.75c0-1-.09-1.23-.63-1.31v-.22l2.57-.58h.22V421c.32-3.06,1.28-6.78,4.84-6.78,2.21,0,4.13,1.53,4.45,4.81.3,2.65.55,5.52.66,6.54S324,426.92,324.41,427.17Z"/><path class="cls-4" d="M340,420.28a7.35,7.35,0,0,1-7.41,7.24c-3.69,0-6.84-2.24-6.84-6.07a7.27,7.27,0,0,1,7.42-7.24C336.85,414.21,340,416.5,340,420.28Zm-2.3-.88c-1-3.28-3.52-5.6-6.64-4.7s-4,4.32-3,7.63,3.53,5.63,6.65,4.7S338.68,422.71,337.72,419.4Z"/><path class="cls-4" d="M351.48,422.58c-.52,2.57-1.67,4.94-4.54,4.94-2.43,0-3.94-1.58-3.94-4.81v-8.28h-1.61v-.22c2.32,0,2.52-2.44,2.52-3.75h2.16a4.07,4.07,0,0,1-3.72,3.75h6v.22h-3.23v8.69c0,2.38.66,4.21,3,3.91,1.81-.24,2.71-2.4,3.2-4.51Z"/><path class="cls-4" d="M365.45,420.28a7.35,7.35,0,0,1-7.41,7.24c-3.69,0-6.83-2.24-6.83-6.07a7.26,7.26,0,0,1,7.41-7.24C362.28,414.21,365.45,416.5,365.45,420.28Zm-2.29-.88c-1-3.28-3.53-5.6-6.65-4.7s-4,4.32-3,7.63S357,428,360.15,427,364.12,422.71,363.16,419.4Z"/><path class="cls-4" d="M392.39,422a9.22,9.22,0,0,1-8.94,5.57,10,10,0,0,1-10.06-9.78c0-5.42,4.89-9.79,10.31-9.79a11.41,11.41,0,0,1,7.05,2.29l-.82,3.12h-.19c-2-3.17-5.25-5.52-8.83-4.76-4.68,1-6.38,6.54-4.9,11.38s5.42,7.33,10.23,6.59a8,8,0,0,0,6-4.71Z"/><path class="cls-4" d="M408.28,420.28a7.36,7.36,0,0,1-7.41,7.24c-3.69,0-6.84-2.24-6.84-6.07a7.26,7.26,0,0,1,7.41-7.24C405.11,414.21,408.28,416.5,408.28,420.28Zm-2.3-.88c-1-3.28-3.52-5.6-6.64-4.7s-4,4.32-3,7.63S399.86,428,403,427,406.94,422.71,406,419.4Z"/><path class="cls-4" d="M422.94,427.36h-2.79v-6.64c-.36,3.09-1.29,6.8-4.84,6.8-2.52,0-4.51-1.58-4.51-4.81v-6.4c0-.95-.09-1.23-.6-1.31v-.19l2.57-.6H413v8.91c0,2.38,1.23,4.35,3.58,3.91,3.06-.6,3.61-6.31,3.61-8.61v-2.11c0-.95-.08-1.23-.6-1.31v-.19l2.57-.6h.19v11.35c0,.95.19,1.36.63,1.61Z"/><path class="cls-4" d="M438.42,419.59c.16,6.79-6.13,7.93-9.19,7.93a5.56,5.56,0,0,1-1.61-.24V432c0,1,.08,1.23.6,1.32v.19l-2.57.6h-.19V416.31c0-.95-.09-1.23-.61-1.31v-.19l2.57-.6h.2v7.49c.49-3.17,1.88-7.49,5.71-7.49A5.35,5.35,0,0,1,438.42,419.59Zm-2.14-.38c-.13-2.38-1.8-5-4.15-4.51-3.07.6-4.51,6.32-4.51,8.61v3.81a4.39,4.39,0,0,0,1.64.24C431.88,427.33,436.67,426.19,436.28,419.21Z"/><path class="cls-4" d="M454.61,420.28a7.36,7.36,0,0,1-7.41,7.24c-3.7,0-6.84-2.24-6.84-6.07a7.26,7.26,0,0,1,7.41-7.24C451.43,414.21,454.61,416.5,454.61,420.28Zm-2.3-.88c-1-3.28-3.53-5.6-6.65-4.7s-4,4.32-3,7.63,3.52,5.63,6.64,4.7S453.27,422.71,452.31,419.4Z"/><path class="cls-4" d="M470,427.17v.19h-3.39v-.19c.44-.25.55-.71.46-1.61s-.49-5.53-.62-6.95c-.2-2.05-1.21-4.38-3.56-3.91-3.06.6-3.64,6.32-3.64,8.61v2.25c0,.95.19,1.36.63,1.61v.19h-3.39v-.19c.41-.25.6-.66.6-1.61v-9.25c0-.95-.08-1.23-.6-1.31v-.19l2.57-.6h.19V421c.36-3.06,1.29-6.78,4.84-6.78,2.25,0,4.16,1.53,4.49,4.81.27,2.65.55,5.52.66,6.54S469.62,426.92,470,427.17Z"/></g></g></svg>