<svg xmlns="http://www.w3.org/2000/svg" viewBox="0 0 687.43 302.7"><defs><style>.cls-1{fill:#252525;}.cls-2{fill:#e87f24;}</style></defs><title>subBanner obj1</title><g id="레이어_2" data-name="레이어 2"><g id="레이어_1-2" data-name="레이어 1"><path d="M137.23,16h2.1v4.75h11.09v2H126.11v-2h11.12Zm8.81-.55H130.29V13.48h3.23c0-.67,0-1.42,0-2.23s0-1.46,0-1.92a15.27,15.27,0,0,0-.23-1.51,3.94,3.94,0,0,0-.49-1.2l1.84-.77a4.7,4.7,0,0,1,.71,1.61c.12.56.22,1.12.3,1.7s.06,1.22.07,2.06,0,1.59,0,2.26h5V5.18h-10.2V3.23h15.29V5.18h-2.93v8.3H146Z"/><path d="M176.34,22.67H152v-2h10.88V16.19h-5.76V2.79h13.31v2H159.26V8.41h11v2h-11v3.8h11.35v2h-5.56v4.49h11.29Z"/><path d="M193.76,18.49H179.68V10H188V5.53h-8.47V3.6h10.71V12h-8.38v4.55h11.89Zm5,7.49h-2.13V0h2.13Z"/><path d="M226.74,17.48h-7.2v9h-2.19v-9h-5.73v9h-2.16v-9H202.4v-2h24.34ZM221,12.56h-13.3V1.47h2.13V5h9V1.47H221Zm-2.16-2V7h-9v3.6Z"/><path d="M251.8,13.25l-1.5,1.41-2.54-2.22c-.61-.54-1.45-1.27-2.5-2.22a19.19,19.19,0,0,1-3,2.67,16.91,16.91,0,0,1-3.31,1.86l-1.41-1.65a14.66,14.66,0,0,0,3.36-1.8,19.19,19.19,0,0,0,2.72-2.37,15,15,0,0,0,1.91-2.57A9.39,9.39,0,0,0,246.55,4H239.1V2h10.16a12,12,0,0,1-.86,3.41,15.15,15.15,0,0,1-1.79,3.18Zm5.61,14.11h-2.16V19.93H243.91v-2h13.5Zm5-18.75h-4.66V16.7H255.6V0h2.16V6.62h4.66Z"/><path d="M277.31,12.73l-1.47,1.44L270.31,8.7A12.38,12.38,0,0,1,269,10.8a12.34,12.34,0,0,1-1.51,1.61A9.26,9.26,0,0,1,266,13.59a13.39,13.39,0,0,1-1.23.72l-1.42-1.55a8.24,8.24,0,0,0,2-1.2,10.9,10.9,0,0,0,2-2,11.18,11.18,0,0,0,1.48-2.79,10.05,10.05,0,0,0,.59-3.57V1.27h2.22v1.9a14.51,14.51,0,0,1-.16,1.8,16.2,16.2,0,0,1-.33,1.63ZM284.68,22a5,5,0,0,1-.51,2.27A5.84,5.84,0,0,1,282.78,26a6.33,6.33,0,0,1-2,1.12,7.27,7.27,0,0,1-2.42.4,7.65,7.65,0,0,1-2.52-.4,6.13,6.13,0,0,1-2-1.15,5.29,5.29,0,0,1-1.35-1.77A5.1,5.1,0,0,1,272,22a4.76,4.76,0,0,1,.5-2.16,5.47,5.47,0,0,1,1.4-1.75,6.28,6.28,0,0,1,2-1.18,6.91,6.91,0,0,1,2.45-.44,7.37,7.37,0,0,1,2.45.41,6,6,0,0,1,2,1.15,5.49,5.49,0,0,1,1.39,1.74A4.94,4.94,0,0,1,284.68,22Zm-2.21,0a3.2,3.2,0,0,0-1.17-2.66,4.64,4.64,0,0,0-3-.94,4.26,4.26,0,0,0-2.95,1A3.28,3.28,0,0,0,274.23,22a3.24,3.24,0,0,0,1.18,2.66,4.86,4.86,0,0,0,5.85,0A3.26,3.26,0,0,0,282.47,22ZM285,15.81H282.9v-8h-6.28V5.85h6.28V0H285Z"/><path d="M302.28,16.36l-1.47,1.5L294.56,12a12.36,12.36,0,0,1-2.82,3.8A17.13,17.13,0,0,1,288.66,18l-1.38-1.61a13,13,0,0,0,2.83-2.05,11.83,11.83,0,0,0,2-2.45,10.85,10.85,0,0,0,1.16-2.65,9.59,9.59,0,0,0,.39-2.67V2.74H296V6a13.64,13.64,0,0,1-.15,2,12.71,12.71,0,0,1-.4,1.84ZM308.93,26H306.8V.06h2.13Z"/><path d="M340.67,19.27l-2,.33c-.62.1-1.3.2-2.05.27s-1.69.17-2.76.2-2.43.06-4.06.06h-7.23V18.2h7.08v-4h2.16v4a37.7,37.7,0,0,0,4.57-.23c1.56-.17,3-.39,4.3-.66ZM337,15.72l-5.18-3.45a18.63,18.63,0,0,1-3.69,2.3,18.28,18.28,0,0,1-3.11,1.21l-1.29-1.7A16.42,16.42,0,0,0,326.86,13a20.12,20.12,0,0,0,2.78-1.63,16.65,16.65,0,0,0,2.15-1.77,7.38,7.38,0,0,0,1.31-1.69h-7.92V6h11a7.56,7.56,0,0,1-1,2.64,13.14,13.14,0,0,1-1.75,2.26c1,.69,1.86,1.24,2.48,1.64l2.5,1.64ZM334.85,4.18c-.26,0-.58.06-1,.07h-1.15c-.42,0-.83,0-1.22,0l-1,0A11.46,11.46,0,0,1,328.35,4a5.93,5.93,0,0,1-1.93-.74l.69-1.62a11.56,11.56,0,0,0,1.86.51,16.61,16.61,0,0,0,1.79.18c.25,0,.56,0,.91,0h1.08c.39,0,.76,0,1.13,0l1,0Zm9,21.83h-2.16V.06h2.16Z"/><path d="M360.2,17.74H349.14V3.8h9.79v2H351.3v9.93h8.9ZM370.42,26h-2.16V11.35h-4.12V24.16H362V.63h2.13V9.36h4.12V0h2.16Z"/><path d="M395.16,17.25a6.54,6.54,0,0,1-.4,2.32,5.28,5.28,0,0,1-1.18,1.86,5.53,5.53,0,0,1-1.93,1.26,7,7,0,0,1-2.65.47,8.75,8.75,0,0,1-2.62-.35,5.66,5.66,0,0,1-1.85-.95,4.06,4.06,0,0,1-1.15-1.34,4.37,4.37,0,0,1-.49-1.6h2.51a1.84,1.84,0,0,0,.2.79,2.21,2.21,0,0,0,.63.82,3.22,3.22,0,0,0,1,.67,4.43,4.43,0,0,0,1.6.26,3.52,3.52,0,0,0,2.9-1.23,4.8,4.8,0,0,0,1-3.12,3.69,3.69,0,0,0-.52-2A3.82,3.82,0,0,0,391,13.8a5.58,5.58,0,0,0-1.67-.62,7.65,7.65,0,0,0-1.64-.19v-1.7a5.31,5.31,0,0,0,3.73-1.08,3.52,3.52,0,0,0,1.14-2.66,3.67,3.67,0,0,0-1-2.63,3.23,3.23,0,0,0-2.41-1,3.8,3.8,0,0,0-2.63.8,2.85,2.85,0,0,0-1,1.67h-2.27a3.15,3.15,0,0,1,.33-1.29,4.23,4.23,0,0,1,1-1.35,6,6,0,0,1,1.8-1.07A7,7,0,0,1,389,2.22a6.49,6.49,0,0,1,4,1.38,5.52,5.52,0,0,1,1.31,1.67,4.78,4.78,0,0,1,.5,2.25,4,4,0,0,1-.38,1.78,5.86,5.86,0,0,1-.94,1.36,5.92,5.92,0,0,1-1.19.93,4.53,4.53,0,0,1-1.11.48v.06a7.36,7.36,0,0,1,1.21.46,4.52,4.52,0,0,1,1.29.89,5.43,5.43,0,0,1,1,1.52A5.28,5.28,0,0,1,395.16,17.25Z"/><path d="M409.27,13.85H398.21V2.28h11.06ZM407.11,12V4.23h-6.74V12Zm10.26,14.78H403.66V18.09h2.19v6.62h11.52Zm4.26-18.12H417v9.88h-2.1V0H417V6.6h4.67Z"/><path d="M440.2,13.42c-.55.1-1.09.18-1.61.26s-1.09.15-1.73.23l-2.19.19c-.82.07-1.81.11-3,.13V18.4h-2.1V14.26H423V12.38h6.25c2.53,0,4.66-.08,6.36-.24a39,39,0,0,0,4.58-.68ZM437,6.05a4.33,4.33,0,0,1-.5,2.11,4.64,4.64,0,0,1-1.37,1.52,6,6,0,0,1-2,.9,8.8,8.8,0,0,1-2.37.31,8.47,8.47,0,0,1-2.36-.31,5.92,5.92,0,0,1-1.93-.9,4.38,4.38,0,0,1-1.28-1.52,4.44,4.44,0,0,1-.48-2.11A4.43,4.43,0,0,1,425.14,4a4.38,4.38,0,0,1,1.3-1.54,5.78,5.78,0,0,1,1.91-.94,8.3,8.3,0,0,1,2.38-.33,9.38,9.38,0,0,1,2.42.3,6.2,6.2,0,0,1,2,.91,4.49,4.49,0,0,1,1.33,1.51A4.43,4.43,0,0,1,437,6.05Zm-2.22,0a2.46,2.46,0,0,0-1.18-2.22,5.16,5.16,0,0,0-2.82-.75A5,5,0,0,0,428,3.8,2.45,2.45,0,0,0,426.87,6,2.53,2.53,0,0,0,428,8.31a4.89,4.89,0,0,0,2.74.73,5.45,5.45,0,0,0,2.81-.7A2.47,2.47,0,0,0,434.73,6.05Zm10,20.73H431V19.53h2.16v5.24h11.6Zm-.26-6.88h-2.1V17.19h-6.05V15.32h6.05V.06h2.1Z"/><path d="M472,6.6h-6a5.78,5.78,0,0,0-2.49.41A4.2,4.2,0,0,0,462,8.21a2.63,2.63,0,0,0-.46.95,3.81,3.81,0,0,0-.11,1.12,3.66,3.66,0,0,0,.31,1.14,2.56,2.56,0,0,0,.81,1,3.33,3.33,0,0,0,2.36.74,3.5,3.5,0,0,0,2.19-1,2.58,2.58,0,0,0,.52-.8,2.75,2.75,0,0,0,.2-1,2.4,2.4,0,0,0-.23-1,2,2,0,0,0-.75-.83l1.53-1.3a3.35,3.35,0,0,1,1,1.07,3.89,3.89,0,0,1,.52,1.49,4.94,4.94,0,0,1-.09,1.7,4.43,4.43,0,0,1-.81,1.7,4,4,0,0,1-1.48,1.21,5.92,5.92,0,0,1-2,.58,6.83,6.83,0,0,1-2.16-.07,5,5,0,0,1-2-.85A5,5,0,0,1,460,12.56a4.86,4.86,0,0,1-.64-1.73,4.39,4.39,0,0,1,.05-1.73,4.7,4.7,0,0,1,.67-1.55,3.13,3.13,0,0,1,.4-.47,2.66,2.66,0,0,1,.66-.48h-4V4.67H472ZM468.77,3c-1.15.08-2.15.12-3,.12s-1.7,0-2.54-.09a7.94,7.94,0,0,1-1.85-.31A5.56,5.56,0,0,1,459.9,2L460.56.4a7.61,7.61,0,0,0,1.37.46,7.86,7.86,0,0,0,1.49.23c.84.06,1.68.09,2.5.09s1.78,0,2.85-.11Zm8.76,24H464V20.68h10.54V18.43H463.88V16.5h12.93v6.08H466.33v2.36h11.2Zm4.55-18.2h-4.64v6.57h-2.1V0h2.1V6.8h4.64Z"/><path d="M496.1,8a5.45,5.45,0,0,1-.51,2.35,6.69,6.69,0,0,1-1.39,1.91,6.48,6.48,0,0,1-4.4,1.73,6.18,6.18,0,0,1-2.35-.45,5.93,5.93,0,0,1-3.3-3.15A5.9,5.9,0,0,1,483.66,8a5.72,5.72,0,0,1,.48-2.33,5.62,5.62,0,0,1,1.31-1.9,6.42,6.42,0,0,1,2-1.29A6.17,6.17,0,0,1,489.8,2a6.91,6.91,0,0,1,2.45.44,6.33,6.33,0,0,1,2,1.26,6.28,6.28,0,0,1,1.34,1.9A5.56,5.56,0,0,1,496.1,8Zm-2.18,0a3.72,3.72,0,0,0-.34-1.54,4.37,4.37,0,0,0-.9-1.31,4.2,4.2,0,0,0-1.3-.88,3.89,3.89,0,0,0-1.58-.33,3.7,3.7,0,0,0-1.56.33A4.31,4.31,0,0,0,487,5.1a3.85,3.85,0,0,0-.84,1.28,3.85,3.85,0,0,0-.31,1.54,4.29,4.29,0,0,0,.29,1.57,3.56,3.56,0,0,0,.84,1.28,3.4,3.4,0,0,0,1.25.89,3.84,3.84,0,0,0,1.6.32,4,4,0,0,0,2.93-1.18A3.89,3.89,0,0,0,493.92,8Zm10.56,18.83H490.72V17.86h2.19v6.91h11.57Zm-.31-8.2H502V.06h2.16Z"/><path d="M541.87,15.93H530.32V26.58H528.1V15.93H517.44v-2h24.43ZM536.51,1.67A41.07,41.07,0,0,1,536.08,8c-.29,1.83-.62,3.44-1,4.82H533c.11-.53.25-1.15.4-1.85s.29-1.45.4-2.23H522.34v-2h11.72c.06-.56.11-1.1.16-1.63s.07-1,.07-1.51h-12v-2Z"/><path d="M548.23,9.33h3c0-.34,0-.7,0-1.06l-.06-1.1a12.78,12.78,0,0,0-.23-1.51,3.94,3.94,0,0,0-.49-1.2l1.84-.77A4.7,4.7,0,0,1,553,5.3c.12.56.22,1.12.3,1.7,0,.42,0,.82.06,1.21s0,.76.06,1.12h4.37V3.08h-9.27v-2h13.79v2h-2.36V9.33h2.59v2h-6v3h11.21v2H543.39v-2h11v-3h-6.19ZM562.8,26.64H548.92v-8h2.16v6H562.8Z"/><path class="cls-1" d="M687.43,272.41V250.19a10,10,0,1,1,0-20.05V210.08a10,10,0,1,1,0-20.05V170a10,10,0,1,1,0-20.05V129.86a10,10,0,1,1,0-20.05V87.59a30.3,30.3,0,0,1-30.3-30.29H30.29A30.29,30.29,0,0,1,0,87.59v22.22a10,10,0,0,1,10,10,10,10,0,0,1-10,10v20.06a10,10,0,0,1,10,10A10,10,0,0,1,0,170V190a10,10,0,0,1,10,10,10,10,0,0,1-10,10v20.06a10,10,0,0,1,10,10,10,10,0,0,1-10,10v22.22A30.29,30.29,0,0,1,30.29,302.7H657.13A30.3,30.3,0,0,1,687.43,272.41Z"/><path class="cls-2" d="M274.18,214.49c-.83,5.55-6.7,11.81-15.89,11.81a23.26,23.26,0,0,1-15.64-6.39l2.56-8h.51c1.21,8.55,6.89,13.53,12.25,13.66,7.66.25,10.72-5.24,11.23-10.79.9-9.19-4.72-16.08-15.06-12.32a3.06,3.06,0,0,1-.19-.44c7.66-2.75,12.13-7.41,11.87-13.21-.19-4.92-2.62-7.6-6.51-7.6-5.3,0-10.34,3.7-11.55,12.32h-.45l-2.61-6.64a22.71,22.71,0,0,1,14.93-6.32c6.83,0,11,3.26,11,8.55,0,8-8.55,10.22-13.59,12C266.71,198.54,275.78,204.47,274.18,214.49Z"/><path class="cls-2" d="M313.68,203.45c0,13.53-7.85,22.85-17.42,22.85-9.07,0-17.43-10.28-17.43-22.85,0-13.4,7.73-22.85,17.43-22.85C305.32,180.6,313.68,190.81,313.68,203.45Zm-5.74-5.23c-2.49-11.24-8.56-19.09-16.41-16.09s-9.44,15.26-6.95,26.49,8.61,19.14,16.34,16.15C308.89,221.7,310.42,209.51,307.94,198.22Z"/><path class="cls-2" d="M325,222.79c0,3.51-2.17,6.57-5.68,9.44l-.38-.32c2.55-2.17,4.21-4.15,5-6.57a3.59,3.59,0,0,1-2.36,1,3.49,3.49,0,0,1-3.45-3.51,3.45,3.45,0,1,1,6.89,0Z"/><path class="cls-2" d="M364.34,203.45c0,13.53-7.85,22.85-17.42,22.85-9.06,0-17.42-10.28-17.42-22.85,0-13.4,7.72-22.85,17.42-22.85C356,180.6,364.34,190.81,364.34,203.45Zm-5.74-5.23c-2.49-11.24-8.55-19.09-16.4-16.09s-9.45,15.26-7,26.49,8.62,19.14,16.34,16.15C359.56,221.7,361.09,209.51,358.6,198.22Z"/><path class="cls-2" d="M404.29,203.45c0,13.53-7.85,22.85-17.42,22.85-9.07,0-17.43-10.28-17.43-22.85,0-13.4,7.73-22.85,17.43-22.85C395.93,180.6,404.29,190.81,404.29,203.45Zm-5.75-5.23c-2.48-11.24-8.55-19.09-16.4-16.09s-9.44,15.26-6.95,26.49,8.61,19.14,16.33,16.15C399.5,221.7,401,209.51,398.54,198.22Z"/><path class="cls-2" d="M444.23,203.45c0,13.53-7.85,22.85-17.42,22.85-9.06,0-17.42-10.28-17.42-22.85,0-13.4,7.72-22.85,17.42-22.85C435.87,180.6,444.23,190.81,444.23,203.45Zm-5.74-5.23c-2.49-11.24-8.55-19.09-16.4-16.09s-9.45,15.26-7,26.49,8.62,19.14,16.34,16.15C439.45,221.7,441,209.51,438.49,198.22Z"/><path class="cls-2" d="M237.09,130.17v15.51c0,1,.19,1.37.63,1.61v.19h-3.4v-.19c.41-.24.63-.65.63-1.61V129.16l-7.54,13.07h-.25l-7.82-11.92V144.2a3.88,3.88,0,0,0,1.72,3.09v.19H217.4v-.19a3.88,3.88,0,0,0,1.72-3.09V130l-1.23-1.7h2.46l7.85,12.12,7-12.12h2.55v.22C237.28,128.81,237.09,129.19,237.09,130.17Z"/><path class="cls-2" d="M243.29,147.29v.19H239.9v-.19c.41-.24.61-.65.61-1.61v-9.24c0-1-.09-1.24-.61-1.32v-.19l2.57-.6h.2v11.35C242.67,146.64,242.86,147.05,243.29,147.29Zm-3.06-16.46a1.29,1.29,0,1,1,2.57,0,1.29,1.29,0,0,1-2.57,0Z"/><path class="cls-2" d="M258.64,147.29v.19H254v-.19c.44-.19.82-.68.19-1.56L250.6,141l-1.4,1.8c-1.91,2.49-2.51,4-1.39,4.54v.19h-3.42v-.19c1.64-.71,2.54-1.83,4.51-4.43l1.59-2.05-3.37-4.4a5.16,5.16,0,0,0-2.24-1.86v-.22h4.59v.22c-.43.19-.84.68-.16,1.59l2.84,3.74.63-.82c1.92-2.46,2.52-4,1.43-4.51v-.22h3.39v.22c-1.64.68-2.55,1.83-4.52,4.4l-.82,1.07,4.11,5.39A5.08,5.08,0,0,0,258.64,147.29Z"/><path class="cls-2" d="M273.43,147.29v.19h-4.59v-.19c.43-.19.82-.68.19-1.56L265.39,141l-1.39,1.8c-1.92,2.49-2.52,4-1.4,4.54v.19h-3.42v-.19c1.64-.71,2.55-1.83,4.51-4.43l1.59-2.05-3.36-4.4a5.22,5.22,0,0,0-2.24-1.86v-.22h4.59v.22c-.44.19-.85.68-.16,1.59l2.84,3.74.63-.82c1.91-2.46,2.51-4,1.42-4.51v-.22h3.39v.22c-1.64.68-2.54,1.83-4.51,4.4l-.82,1.07,4.1,5.39A5.08,5.08,0,0,0,273.43,147.29Z"/><path class="cls-2" d="M287.68,140.4a7.36,7.36,0,0,1-7.41,7.25c-3.69,0-6.84-2.24-6.84-6.07a7.27,7.27,0,0,1,7.41-7.25C284.51,134.33,287.68,136.63,287.68,140.4Zm-2.3-.87c-1-3.29-3.53-5.61-6.64-4.71s-4,4.32-3,7.63,3.53,5.64,6.64,4.71S286.34,142.84,285.38,139.53Z"/><path class="cls-2" d="M309,134c0,3.85-3.58,5.58-9,5.58h-1.34v6.15c0,1,.19,1.37.6,1.61v.19h-3.39v-.19c.44-.24.63-.65.63-1.61V130.17c0-1-.19-1.36-.63-1.61v-.22H300C305.4,128.34,309,130.06,309,134Zm-2.16,0c0-3.23-1.89-5.39-6.81-5.39h-1.34v10.75H300C304.93,139.31,306.82,137.15,306.82,134Z"/><path class="cls-2" d="M324.41,147.29v.19H321v-.19c.41-.24.55-.71.47-1.61s-.5-5.53-.63-7c-.22-2-1.23-4.37-3.58-3.91-3.07.6-3.61,6.32-3.61,8.62v2.24c0,1,.19,1.37.6,1.61v.19H310.9v-.19c.43-.24.63-.65.63-1.61V129.87c0-1-.09-1.23-.63-1.31v-.22l2.57-.57h.22v13.34c.32-3.06,1.28-6.78,4.84-6.78,2.21,0,4.13,1.53,4.45,4.81.3,2.66.55,5.53.66,6.54S324,147.05,324.41,147.29Z"/><path class="cls-2" d="M340,140.4a7.35,7.35,0,0,1-7.41,7.25c-3.69,0-6.84-2.24-6.84-6.07a7.27,7.27,0,0,1,7.42-7.25C336.85,134.33,340,136.63,340,140.4Zm-2.3-.87c-1-3.29-3.52-5.61-6.64-4.71s-4,4.32-3,7.63,3.53,5.64,6.65,4.71S338.68,142.84,337.72,139.53Z"/><path class="cls-2" d="M351.48,142.7c-.52,2.57-1.67,5-4.54,5-2.43,0-3.94-1.59-3.94-4.81v-8.29h-1.61v-.22c2.32,0,2.52-2.43,2.52-3.75h2.16a4.07,4.07,0,0,1-3.72,3.75h6v.22h-3.23v8.7c0,2.37.66,4.21,3,3.91,1.81-.25,2.71-2.41,3.2-4.52Z"/><path class="cls-2" d="M365.45,140.4a7.35,7.35,0,0,1-7.41,7.25c-3.69,0-6.83-2.24-6.83-6.07a7.26,7.26,0,0,1,7.41-7.25C362.28,134.33,365.45,136.63,365.45,140.4Zm-2.29-.87c-1-3.29-3.53-5.61-6.65-4.71s-4,4.32-3,7.63,3.53,5.64,6.65,4.71S364.12,142.84,363.16,139.53Z"/><path class="cls-2" d="M392.39,142.07a9.23,9.23,0,0,1-8.94,5.58,10,10,0,0,1-10.06-9.79c0-5.42,4.89-9.79,10.31-9.79a11.41,11.41,0,0,1,7.05,2.29l-.82,3.12h-.19c-2-3.17-5.25-5.52-8.83-4.76-4.68,1-6.38,6.54-4.9,11.38s5.42,7.33,10.23,6.59a8,8,0,0,0,6-4.7Z"/><path class="cls-2" d="M408.28,140.4a7.36,7.36,0,0,1-7.41,7.25c-3.69,0-6.84-2.24-6.84-6.07a7.27,7.27,0,0,1,7.41-7.25C405.11,134.33,408.28,136.63,408.28,140.4Zm-2.3-.87c-1-3.29-3.52-5.61-6.64-4.71s-4,4.32-3,7.63,3.53,5.64,6.65,4.71S406.94,142.84,406,139.53Z"/><path class="cls-2" d="M422.94,147.48h-2.79v-6.64c-.36,3.09-1.29,6.81-4.84,6.81-2.52,0-4.51-1.59-4.51-4.81v-6.4c0-1-.09-1.24-.6-1.32v-.19l2.57-.6H413v8.92c0,2.37,1.23,4.34,3.58,3.91,3.06-.61,3.61-6.32,3.61-8.62v-2.1c0-1-.08-1.24-.6-1.32v-.19l2.57-.6h.19v11.35c0,1,.19,1.37.63,1.61Z"/><path class="cls-2" d="M438.42,139.72c.16,6.78-6.13,7.93-9.19,7.93a5.55,5.55,0,0,1-1.61-.25v4.7c0,1,.08,1.24.6,1.32v.19l-2.57.6h-.19V136.44c0-1-.09-1.24-.61-1.32v-.19l2.57-.6h.2v7.49c.49-3.17,1.88-7.49,5.71-7.49A5.35,5.35,0,0,1,438.42,139.72Zm-2.14-.39c-.13-2.37-1.8-5-4.15-4.51-3.07.6-4.51,6.32-4.51,8.62v3.8a4.39,4.39,0,0,0,1.64.24C431.88,147.46,436.67,146.31,436.28,139.33Z"/><path class="cls-2" d="M454.61,140.4a7.36,7.36,0,0,1-7.41,7.25c-3.7,0-6.84-2.24-6.84-6.07a7.27,7.27,0,0,1,7.41-7.25C451.43,134.33,454.61,136.63,454.61,140.4Zm-2.3-.87c-1-3.29-3.53-5.61-6.65-4.71s-4,4.32-3,7.63,3.52,5.64,6.64,4.71S453.27,142.83,452.31,139.53Z"/><path class="cls-2" d="M470,147.29v.19h-3.39v-.19c.44-.24.55-.71.46-1.61s-.49-5.53-.62-7c-.2-2-1.21-4.37-3.56-3.91-3.06.6-3.64,6.32-3.64,8.62v2.24c0,1,.19,1.37.63,1.61v.19h-3.39v-.19c.41-.24.6-.65.6-1.61v-9.24c0-1-.08-1.24-.6-1.32v-.19l2.57-.6h.19v6.78c.36-3.06,1.29-6.78,4.84-6.78,2.25,0,4.16,1.53,4.49,4.81.27,2.66.55,5.53.66,6.54S469.62,147.05,470,147.29Z"/></g></g></svg>