<svg xmlns="http://www.w3.org/2000/svg" viewBox="0 0 648.33 216.64"><defs><style>.cls-1{fill:#252525;}.cls-2{fill:none;stroke:#252525;stroke-miterlimit:10;}</style></defs><title>subBanner title</title><g id="레이어_2" data-name="레이어 2"><g id="레이어_1-2" data-name="레이어 1"><path class="cls-1" d="M182,66.15v34c0,2.1.42,3,1.38,3.54v.42h-7.44v-.42c.9-.54,1.38-1.44,1.38-3.54V63.93L160.76,92.61h-.54L143.06,66.45V96.93c0,2.58,1.8,5.76,3.78,6.78v.42h-8v-.42c2-1,3.78-4.2,3.78-6.78V65.85l-2.7-3.72h5.4L162.5,88.71l15.3-26.58h5.58v.48C182.42,63.15,182,64,182,66.15Z"/><path class="cls-1" d="M195.62,103.71v.42h-7.44v-.42c.9-.54,1.32-1.44,1.32-3.54V79.89c0-2.1-.18-2.7-1.32-2.88v-.42l5.64-1.32h.42v24.9C194.24,102.27,194.66,103.17,195.62,103.71ZM188.9,67.59a2.82,2.82,0,1,1,2.82,2.82A2.82,2.82,0,0,1,188.9,67.59Z"/><path class="cls-1" d="M229.28,103.71v.42H219.2v-.42c1-.42,1.8-1.5.42-3.42l-8-10.5-3.06,4c-4.2,5.46-5.52,8.76-3.06,10v.42H198v-.42c3.6-1.56,5.58-4,9.9-9.72l3.48-4.5L204,79.83a11.36,11.36,0,0,0-4.92-4.08v-.48h10.08v.48c-1,.42-1.86,1.5-.36,3.48l6.24,8.22,1.38-1.8c4.2-5.4,5.52-8.76,3.12-9.9v-.48H227v.48c-3.6,1.5-5.58,4-9.9,9.66l-1.8,2.34,9,11.82A11.25,11.25,0,0,0,229.28,103.71Z"/><path class="cls-1" d="M261.74,103.71v.42H251.66v-.42c1-.42,1.8-1.5.42-3.42l-8-10.5-3.06,4c-4.2,5.46-5.52,8.76-3.06,10v.42h-7.5v-.42c3.6-1.56,5.58-4,9.9-9.72l3.48-4.5-7.38-9.66a11.36,11.36,0,0,0-4.92-4.08v-.48h10.08v.48c-1,.42-1.86,1.5-.36,3.48l6.24,8.22,1.38-1.8c4.2-5.4,5.52-8.76,3.12-9.9v-.48h7.44v.48c-3.6,1.5-5.58,4-9.9,9.66l-1.8,2.34,9,11.82A11.25,11.25,0,0,0,261.74,103.71Z"/><path class="cls-1" d="M293,88.59c0,9.6-8.22,15.9-16.25,15.9s-15-4.92-15-13.32c0-9.9,8.22-15.9,16.26-15.9S293,80.31,293,88.59Zm-5-1.92c-2.11-7.2-7.74-12.3-14.58-10.32s-8.7,9.48-6.6,16.74,7.74,12.36,14.58,10.32S290.06,93.93,288,86.67Z"/><path class="cls-1" d="M329.89,103.41c5.95-.6,9.18-5.88,10.14-7.56l.36.18c-1.86,3.36-5.39,8-12.54,8.46-8.27.42-16.55-4.08-16.79-14-.3-10.38,9.12-15.24,15.72-15.24,3.41,0,8.22,1.56,11.33,3.18l-.89,5h-.37c-1.43-3.6-7.13-8.76-12.77-7.44-7.38,1.68-10.08,11.16-7.56,18.36C318.74,100.65,323.84,104,329.89,103.41Z"/><path class="cls-1" d="M375.25,88.59c0,9.6-8.22,15.9-16.26,15.9s-15-4.92-15-13.32c0-9.9,8.21-15.9,16.25-15.9S375.25,80.31,375.25,88.59Zm-5-1.92c-2.1-7.2-7.74-12.3-14.58-10.32s-8.7,9.48-6.6,16.74,7.74,12.36,14.58,10.32S372.31,93.93,370.21,86.67Z"/><path class="cls-1" d="M407.41,104.13h-6.12V89.55c-.78,6.78-2.82,14.94-10.62,14.94-5.52,0-9.9-3.48-9.9-10.56v-14c0-2.1-.18-2.7-1.32-2.88v-.42l5.64-1.32h.42V94.83c0,5.22,2.7,9.54,7.86,8.58,6.72-1.32,7.92-13.86,7.92-18.9V79.89c0-2.1-.18-2.7-1.32-2.88v-.42l5.64-1.32H406v24.9c0,2.1.42,3,1.38,3.54Z"/><path class="cls-1" d="M441.37,87.09c.36,14.88-13.44,17.4-20.16,17.4a12.54,12.54,0,0,1-3.54-.54v10.32c0,2.09.18,2.69,1.32,2.87v.42l-5.64,1.32h-.42v-39c0-2.1-.18-2.7-1.32-2.88v-.42l5.64-1.32h.42V91.71c1.08-7,4.14-16.44,12.54-16.44C435.13,75.27,441.13,79.47,441.37,87.09Zm-4.68-.84c-.3-5.22-4-10.92-9.12-9.9-6.72,1.32-9.9,13.86-9.9,18.9v8.34a9.54,9.54,0,0,0,3.6.54C427,104.07,437.53,101.55,436.69,86.25Z"/><path class="cls-1" d="M476.89,88.59c0,9.6-8.22,15.9-16.26,15.9s-15-4.92-15-13.32c0-9.9,8.22-15.9,16.26-15.9S476.89,80.31,476.89,88.59Zm-5-1.92c-2.1-7.2-7.74-12.3-14.58-10.32s-8.7,9.48-6.6,16.74,7.74,12.36,14.58,10.32S474,93.93,471.85,86.67Z"/><path class="cls-1" d="M510.73,103.71v.42h-7.44v-.42c1-.54,1.2-1.56,1-3.54s-1.08-12.12-1.38-15.24c-.42-4.5-2.64-9.6-7.8-8.58-6.72,1.32-8,13.86-8,18.9v4.92c0,2.1.42,3,1.38,3.54v.42h-7.44v-.42c.9-.54,1.32-1.44,1.32-3.54V79.89c0-2.1-.18-2.7-1.32-2.88v-.42l5.64-1.32h.42V90.15c.78-6.72,2.82-14.88,10.62-14.88,4.92,0,9.12,3.36,9.84,10.56.6,5.82,1.2,12.12,1.44,14.34S509.83,103.17,510.73,103.71Z"/><path class="cls-2" d="M647.87.19c-52.74,126.8-177.81,216-323.71,216S53.2,127,.46.19"/></g></g></svg>