<svg xmlns="http://www.w3.org/2000/svg" viewBox="0 0 687.43 304.19"><defs><style>.cls-1{fill:#252525;}.cls-2{fill:#e87f24;}</style></defs><title>subBanner obj2_1</title><g id="레이어_2" data-name="레이어 2"><g id="레이어_1-2" data-name="레이어 1"><path d="M184.48,13.31,183,14.75l-5.53-5.48A12.9,12.9,0,0,1,174.63,13a11.09,11.09,0,0,1-1.47,1.16,11.08,11.08,0,0,1-1.24.74l-1.41-1.59a8.39,8.39,0,0,0,2-1.18,10.8,10.8,0,0,0,2-2A11.32,11.32,0,0,0,176,7.33a10.3,10.3,0,0,0,.59-3.56V1.56h2.22V3.77a14.17,14.17,0,0,1-.16,1.8c-.09.57-.2,1.11-.33,1.63Zm7.34,13.45H178.09V17.83h2.18v6.91h11.55Zm-.23-8.5h-2.16V0h2.16Z"/><path d="M220.31,15.47h-7.52V26.58h-2.16V15.47h-5.79V26.58h-2.19V15.47h-6.77v-2h24.43ZM215,1.67a35.47,35.47,0,0,1-.45,6.12c-.29,1.68-.62,3.21-1,4.59h-2.16c.13-.59.28-1.25.43-2s.3-1.46.43-2.23.24-1.54.32-2.32.12-1.52.14-2.23H200.75v-2Z"/><path d="M255.5,22.72H231.13v-2h9.39V11.87h2.19v8.87H255.5Zm-5.1-14.2a33.53,33.53,0,0,1-.26,4.27,13.82,13.82,0,0,1-1.12,4h-2.28A15.09,15.09,0,0,0,248,12.59a31.8,31.8,0,0,0,.29-4.38V5H236v-2h14.4Z"/><path d="M269.06,2a15.23,15.23,0,0,1-.93,4.25,15.8,15.8,0,0,1-2,3.75,15.23,15.23,0,0,1-3,3.09,16.14,16.14,0,0,1-3.8,2.21l-1.5-1.55a14.78,14.78,0,0,0,3.53-1.9,14.65,14.65,0,0,0,2.58-2.42,13.19,13.19,0,0,0,1.68-2.71A12,12,0,0,0,266.53,4h-7.37V2Zm10.11,25.4H277V20h-11.4V18h13.53Zm1.24-10.92h-2.13V9H274v6.88H271.8V.66H274V7h4.29v-7h2.13Z"/><path d="M317.07,15.93H305.52V26.58h-2.21V15.93H292.65v-2h24.42ZM311.72,1.67A41,41,0,0,1,311.28,8a45.19,45.19,0,0,1-1,4.82h-2.13c.12-.53.25-1.15.41-1.85s.28-1.45.4-2.23H297.55v-2h11.72c.06-.56.11-1.1.16-1.63s.07-1,.07-1.51h-12v-2Z"/><path d="M323.44,9.33h3c0-.34,0-.7,0-1.06s0-.73,0-1.1a15.27,15.27,0,0,0-.23-1.51,3.94,3.94,0,0,0-.49-1.2l1.84-.77a4.67,4.67,0,0,1,.7,1.61c.13.56.23,1.12.31,1.7,0,.42,0,.82.06,1.21s0,.76,0,1.12H333V3.08H323.7v-2h13.79v2h-2.36V9.33h2.59v2h-6v3H343v2H318.6v-2h11v-3h-6.19ZM338,26.64H324.13v-8h2.16v6H338Z"/><path d="M345.61,12.1h2.8c0-.66,0-1.34,0-2s0-1.24,0-1.58a10.87,10.87,0,0,0-.27-1.57,4.82,4.82,0,0,0-.45-1.14L349.47,5a6.28,6.28,0,0,1,.66,1.38,7.59,7.59,0,0,1,.35,1.93c0,.43,0,1,.06,1.72s0,1.4,0,2.06h3V4H346V2h11.83V4h-2.16V12.1h2.62V14h-12.7Zm20.8,15.2h-2.13V19.56H352.93v-2h13.48Zm1.24-10.8h-2.14V8.81h-3.57V16h-2.13V.66h2.13V6.85h3.57V0h2.14Z"/><path d="M398.4,19.27l-2,.33c-.62.1-1.3.2-2.05.27s-1.69.17-2.76.2-2.43.06-4.06.06h-7.23V18.2h7.08v-4h2.16v4A37.7,37.7,0,0,0,394.1,18c1.56-.17,3-.39,4.3-.66Zm-3.63-3.55-5.18-3.45a18.63,18.63,0,0,1-3.69,2.3,18.28,18.28,0,0,1-3.11,1.21l-1.29-1.7A16.17,16.17,0,0,0,384.59,13a20.12,20.12,0,0,0,2.78-1.63,16.65,16.65,0,0,0,2.15-1.77,7.38,7.38,0,0,0,1.31-1.69h-7.92V6h11a7.36,7.36,0,0,1-1,2.64,12.66,12.66,0,0,1-1.75,2.26l2.48,1.64,2.51,1.64ZM392.59,4.18c-.27,0-.59.06-.95.07h-1.16c-.42,0-.83,0-1.22,0l-1.05,0A11.46,11.46,0,0,1,386.08,4a5.93,5.93,0,0,1-1.93-.74l.69-1.62a11.56,11.56,0,0,0,1.86.51,16.55,16.55,0,0,0,1.8.18q.38,0,.9,0h1.08c.39,0,.76,0,1.13,0l1,0Zm9,21.83h-2.16V.06h2.16Z"/><path d="M417.93,17.74H406.87V3.8h9.79v2H409v9.93h8.9ZM428.15,26H426V11.35h-4.12V24.16h-2.13V.63h2.13V9.36H426V0h2.16Z"/><path d="M448.4,22.92h-2.25V4.61l-3.54,2.24V4.75l3.89-2.42h1.9Z"/><path d="M467.44,16.82a6.41,6.41,0,0,1-1.79,4.43,5.92,5.92,0,0,1-2,1.37,6.71,6.71,0,0,1-2.66.51,7.66,7.66,0,0,1-2.7-.42,5.94,5.94,0,0,1-1.83-1.05,4,4,0,0,1-1-1.37,3.41,3.41,0,0,1-.32-1.4h2.65a2.54,2.54,0,0,0,.69,1.64,3.28,3.28,0,0,0,1,.65,3.49,3.49,0,0,0,1.5.28,3.78,3.78,0,0,0,3-1.29,5.23,5.23,0,0,0,1.24-3.41A4.47,4.47,0,0,0,464,13.51a4.09,4.09,0,0,0-2.75-1.3,3.19,3.19,0,0,0-1.84.38,4.26,4.26,0,0,0-1.24,1.12h-2.24l.51-11.18h9.8v2h-7.75l-.32,6.94a6.45,6.45,0,0,1,1.34-.65,5.61,5.61,0,0,1,1.92-.3,5.71,5.71,0,0,1,4.39,1.76A6.41,6.41,0,0,1,467.44,16.82Z"/><path d="M481.4,13.85H470.34V2.28H481.4ZM479.24,12V4.23H472.5V12ZM489.5,26.73H475.79V18.09H478v6.62H489.5Zm4.26-18.12h-4.67v9.88H487V0h2.1V6.6h4.67Z"/><path d="M512.34,13.42c-.56.1-1.1.18-1.62.26s-1.09.15-1.72.23l-2.19.19c-.83.07-1.82.11-3,.13V18.4h-2.1V14.26h-6.6V12.38h6.25q3.81,0,6.37-.24a39.63,39.63,0,0,0,4.58-.68Zm-3.26-7.37a4.33,4.33,0,0,1-.5,2.11,4.53,4.53,0,0,1-1.37,1.52,6,6,0,0,1-2,.9,8.88,8.88,0,0,1-2.38.31,8.52,8.52,0,0,1-2.36-.31,6,6,0,0,1-1.93-.9,4.38,4.38,0,0,1-1.28-1.52,4.44,4.44,0,0,1-.48-2.11A4.56,4.56,0,0,1,497.27,4a4.38,4.38,0,0,1,1.3-1.54,6,6,0,0,1,1.91-.94,8.35,8.35,0,0,1,2.38-.33,9.38,9.38,0,0,1,2.42.3,6.36,6.36,0,0,1,2,.91,4.57,4.57,0,0,1,1.32,1.51A4.43,4.43,0,0,1,509.08,6.05Zm-2.22,0a2.46,2.46,0,0,0-1.18-2.22,5.12,5.12,0,0,0-2.82-.75,5,5,0,0,0-2.74.72A2.45,2.45,0,0,0,499,6a2.53,2.53,0,0,0,1.12,2.29,4.92,4.92,0,0,0,2.74.73,5.43,5.43,0,0,0,2.81-.7A2.47,2.47,0,0,0,506.86,6.05Zm10.06,20.73H503.15V19.53h2.16v5.24h11.61Zm-.26-6.88h-2.11V17.19h-6V15.32h6V.06h2.11Z"/><path class="cls-1" d="M687.43,273.9V251.68a10,10,0,1,1,0-20.05V211.57a10,10,0,1,1,0-20V171.46a10,10,0,1,1,0-20.05V131.35a10,10,0,1,1,0-20V89.08a30.3,30.3,0,0,1-30.3-30.29H30.29A30.29,30.29,0,0,1,0,89.08V111.3a10,10,0,0,1,10,10,10,10,0,0,1-10,10v20.06a10,10,0,0,1,10,10,10,10,0,0,1-10,10v20.06a10,10,0,0,1,10,10,10,10,0,0,1-10,10v20.06a10,10,0,0,1,10,10,10,10,0,0,1-10,10V273.9a30.29,30.29,0,0,1,30.29,30.29H657.13A30.3,30.3,0,0,1,687.43,273.9Z"/><path class="cls-2" d="M244.76,227v.45H237V227c1-.58,1.47-1.53,1.47-3.77v-32.1c0-4.15-.83-4.21-4.72-2.42l-.19-.38,9.76-5.56v40.46C243.29,225.43,243.8,226.38,244.76,227Z"/><path class="cls-2" d="M281.45,214.26c-.76,7-6.7,13.53-16.59,13.53a21.69,21.69,0,0,1-15-6.38l2.62-8h.45c1.21,8.55,6.25,13.46,11.61,13.66,8.3.32,11.62-6.58,11.93-12.51.58-10.85-7.53-17.36-20.61-12a2.88,2.88,0,0,1-.19-.45l3.32-19.4h15.95c2.62,0,4.22-.64,5.11-2.81h.45l-1,7.6h-20.8L256.18,202C268.56,195.69,282.73,202.2,281.45,214.26Z"/><path class="cls-2" d="M320.89,204.94c0,13.53-7.85,22.85-17.42,22.85-9.07,0-17.43-10.28-17.43-22.85,0-13.4,7.73-22.85,17.43-22.85C312.53,182.09,320.89,192.31,320.89,204.94Zm-5.75-5.23c-2.48-11.23-8.55-19.08-16.4-16.08s-9.44,15.25-6.95,26.48,8.61,19.15,16.33,16.15C316.1,223.19,317.63,211,315.14,199.71Z"/><path class="cls-2" d="M332.24,224.28c0,3.51-2.17,6.57-5.68,9.44l-.38-.32c2.55-2.17,4.21-4.14,5-6.57a3.54,3.54,0,0,1-2.36,1,3.49,3.49,0,0,1-3.45-3.51,3.45,3.45,0,1,1,6.89,0Z"/><path class="cls-2" d="M371.55,204.94c0,13.53-7.85,22.85-17.42,22.85-9.06,0-17.42-10.28-17.42-22.85,0-13.4,7.72-22.85,17.42-22.85C363.19,182.09,371.55,192.31,371.55,204.94Zm-5.74-5.23c-2.49-11.23-8.55-19.08-16.4-16.08s-9.45,15.25-7,26.48,8.62,19.15,16.34,16.15C366.77,223.19,368.3,211,365.81,199.71Z"/><path class="cls-2" d="M411.5,204.94c0,13.53-7.85,22.85-17.43,22.85-9.06,0-17.42-10.28-17.42-22.85,0-13.4,7.72-22.85,17.42-22.85C403.14,182.09,411.5,192.31,411.5,204.94Zm-5.75-5.23c-2.49-11.23-8.55-19.08-16.4-16.08s-9.44,15.25-7,26.48,8.61,19.15,16.33,16.15C406.71,223.19,408.24,211,405.75,199.71Z"/><path class="cls-2" d="M451.44,204.94c0,13.53-7.85,22.85-17.42,22.85-9.06,0-17.42-10.28-17.42-22.85,0-13.4,7.72-22.85,17.42-22.85C443.08,182.09,451.44,192.31,451.44,204.94Zm-5.74-5.23c-2.49-11.23-8.55-19.08-16.4-16.08s-9.45,15.25-7,26.48,8.62,19.15,16.34,16.15C446.66,223.19,448.19,211,445.7,199.71Z"/><path class="cls-2" d="M215.34,131.66v15.51c0,1,.2,1.37.63,1.61v.2h-3.39v-.2c.41-.24.63-.65.63-1.61V130.65l-7.55,13.07h-.24L197.6,131.8v13.89a3.88,3.88,0,0,0,1.72,3.09v.2h-3.67v-.2a3.86,3.86,0,0,0,1.73-3.09V131.53l-1.23-1.7h2.46L206.46,142l7-12.12H216v.22C215.54,130.3,215.34,130.68,215.34,131.66Z"/><path class="cls-2" d="M221.55,148.78v.2h-3.39v-.2c.41-.24.6-.65.6-1.61v-9.24c0-1-.08-1.23-.6-1.32v-.19l2.57-.6h.19v11.35C220.92,148.13,221.11,148.54,221.55,148.78Zm-3.06-16.46a1.29,1.29,0,1,1,1.29,1.29A1.28,1.28,0,0,1,218.49,132.32Z"/><path class="cls-2" d="M236.89,148.78v.2H232.3v-.2c.44-.19.82-.68.19-1.55l-3.64-4.79-1.39,1.8c-1.92,2.49-2.52,4-1.4,4.54v.2h-3.41v-.2c1.64-.71,2.54-1.83,4.51-4.43l1.58-2-3.36-4.4a5.16,5.16,0,0,0-2.24-1.86v-.22h4.59V136c-.44.19-.84.68-.16,1.59l2.84,3.74.63-.82c1.92-2.46,2.52-4,1.42-4.51v-.22h3.39V136c-1.64.68-2.54,1.83-4.51,4.4l-.82,1.07,4.1,5.39A5.13,5.13,0,0,0,236.89,148.78Z"/><path class="cls-2" d="M251.69,148.78v.2h-4.6v-.2c.44-.19.83-.68.2-1.55l-3.64-4.79-1.4,1.8c-1.91,2.49-2.51,4-1.39,4.54v.2h-3.42v-.2c1.64-.71,2.54-1.83,4.51-4.43l1.59-2-3.36-4.4a5.18,5.18,0,0,0-2.25-1.86v-.22h4.6V136c-.44.19-.85.68-.17,1.59l2.85,3.74.63-.82c1.91-2.46,2.51-4,1.42-4.51v-.22h3.39V136c-1.64.68-2.54,1.83-4.51,4.4l-.82,1.07,4.1,5.39A5.08,5.08,0,0,0,251.69,148.78Z"/><path class="cls-2" d="M265.94,141.89a7.36,7.36,0,0,1-7.41,7.25c-3.7,0-6.84-2.24-6.84-6.07a7.27,7.27,0,0,1,7.41-7.25C262.76,135.82,265.94,138.12,265.94,141.89Zm-2.3-.87c-1-3.28-3.53-5.61-6.65-4.71s-4,4.32-3,7.63,3.52,5.64,6.64,4.71S264.6,144.33,263.64,141Z"/><path class="cls-2" d="M297.71,135.08l-3.88,11.52.93,2.38H292.6l-5.36-13.9-.33-.74-4.13,12.26.91,2.38h-2.14l-5.36-13.9a16.6,16.6,0,0,0-2.87-5v-.22h4.21v.22c-.71.71-.49,1.67.28,3.67l4.86,12.58,3.8-11.22c.11-.35.22-.71.33-1a14.77,14.77,0,0,0-2.43-4v-.22h4.21v.22c-.71.71-.49,1.67.27,3.67l4.87,12.58,3.8-11.22c.85-2.49.93-3.8-.24-5v-.22h3.25v.22A12.16,12.16,0,0,0,297.71,135.08Z"/><path class="cls-2" d="M313.3,144.63c-.16,1.94-1.88,4.51-5.77,4.51s-7.41-1.86-7.52-6.37c-.13-4.73,4.16-6.78,7.17-7,2.32-.11,5.52,1,5.9,4.32h-2.54A4,4,0,0,1,313.3,144.63Zm-3.88-4.49h-7.08a7.83,7.83,0,0,0,.19,4.38,5.5,5.5,0,0,0,5.85,4,4.8,4.8,0,0,0,4.68-3.86C313.39,141.84,311.5,140.14,309.42,140.14Zm-7-.22h8.73a4.37,4.37,0,0,0-5.17-3.77A4.8,4.8,0,0,0,302.39,139.92Z"/><path class="cls-2" d="M318.61,148.78v.2h-3.37v-.2c.42-.24.61-.65.61-1.61V131.36c0-1-.09-1.23-.61-1.31v-.22l2.58-.57H318v17.91C318,148.13,318.2,148.54,318.61,148.78Z"/><path class="cls-2" d="M329.14,148.65c2.71-.28,4.18-2.68,4.62-3.45l.16.08a6.8,6.8,0,0,1-5.71,3.86c-3.78.19-7.55-1.86-7.66-6.37-.14-4.73,4.16-7,7.17-7a13,13,0,0,1,5.16,1.45l-.41,2.27h-.16c-.66-1.64-3.25-4-5.83-3.39-3.36.77-4.59,5.09-3.44,8.37A5.72,5.72,0,0,0,329.14,148.65Z"/><path class="cls-2" d="M349.81,141.89a7.36,7.36,0,0,1-7.41,7.25c-3.69,0-6.84-2.24-6.84-6.07a7.27,7.27,0,0,1,7.41-7.25C346.64,135.82,349.81,138.12,349.81,141.89Zm-2.3-.87c-.95-3.28-3.52-5.61-6.64-4.71s-4,4.32-3,7.63,3.53,5.64,6.65,4.71S348.47,144.33,347.51,141Z"/><path class="cls-2" d="M372.48,148.78v.2h-3.36v-.2c.41-.24.55-.71.46-1.61s-.49-5.52-.63-6.95c-.21-2.05-1-4.37-3.14-3.91-2.52.55-2.84,4.79-2.87,7.66v3.2c0,1,.19,1.37.6,1.61v.2h-3.36v-.2c.41-.24.6-.65.6-1.61v-6.95c0-2.07-1-4.32-3.09-3.91-3.06.58-3.2,6.29-3.2,8.62v2.24c0,1,.22,1.37.63,1.61v.2h-3.39v-.2c.41-.24.63-.65.63-1.61v-9.24c0-1-.09-1.23-.63-1.32v-.19l2.57-.6h.19v6.07c.3-2.9,1.12-6.07,4.4-6.07,2.11,0,3.91,1.81,4,4.81l0,.31c.33-2.66,1.34-5.12,4.1-5.12,2.16,0,3.69,1.62,4,4.81.3,2.66.55,5.53.66,6.54S372.07,148.54,372.48,148.78Z"/><path class="cls-2" d="M387.17,144.63c-.17,1.94-1.89,4.51-5.77,4.51s-7.41-1.86-7.52-6.37c-.14-4.73,4.15-6.78,7.16-7,2.33-.11,5.53,1,5.91,4.32h-2.54A4,4,0,0,1,387.17,144.63Zm-3.88-4.49H376.2a8,8,0,0,0,.19,4.38,5.51,5.51,0,0,0,5.86,4,4.78,4.78,0,0,0,4.67-3.86C387.25,141.84,385.36,140.14,383.29,140.14Zm-7-.22H385a4.37,4.37,0,0,0-5.17-3.77A4.79,4.79,0,0,0,376.26,139.92Z"/><path class="cls-2" d="M414.13,143.56a9.22,9.22,0,0,1-8.94,5.58,10,10,0,0,1-10.06-9.79c0-5.41,4.89-9.79,10.31-9.79a11.42,11.42,0,0,1,7.05,2.3l-.82,3.11h-.19c-2-3.17-5.25-5.52-8.83-4.75-4.68,1-6.37,6.53-4.9,11.37s5.42,7.33,10.23,6.59a8,8,0,0,0,6-4.7Z"/><path class="cls-2" d="M430,141.89a7.35,7.35,0,0,1-7.41,7.25c-3.69,0-6.84-2.24-6.84-6.07a7.27,7.27,0,0,1,7.42-7.25C426.85,135.82,430,138.12,430,141.89Zm-2.3-.87c-1-3.28-3.52-5.61-6.64-4.71s-4,4.32-3,7.63,3.53,5.64,6.65,4.71S428.68,144.33,427.72,141Z"/><path class="cls-2" d="M444.68,149h-2.79v-6.65c-.35,3.09-1.28,6.81-4.84,6.81-2.52,0-4.51-1.59-4.51-4.81v-6.4c0-1-.08-1.23-.6-1.32v-.19l2.57-.6h.19v8.92c0,2.38,1.23,4.34,3.58,3.91,3.06-.6,3.61-6.32,3.61-8.62v-2.1c0-1-.08-1.23-.6-1.32v-.19l2.57-.6h.19v11.35c0,1,.19,1.37.63,1.61Z"/><path class="cls-2" d="M460.16,141.21c.16,6.78-6.13,7.93-9.19,7.93a5.55,5.55,0,0,1-1.61-.25v4.71c0,1,.08,1.23.6,1.31v.19l-2.57.6h-.19V137.93c0-1-.09-1.23-.61-1.32v-.19l2.57-.6h.2v7.49c.49-3.17,1.88-7.49,5.71-7.49A5.36,5.36,0,0,1,460.16,141.21Zm-2.13-.38c-.14-2.38-1.81-5-4.16-4.52-3.06.61-4.51,6.32-4.51,8.62v3.8A4.53,4.53,0,0,0,451,149C453.62,149,458.41,147.8,458,140.83Z"/><path class="cls-2" d="M476.35,141.89a7.36,7.36,0,0,1-7.41,7.25c-3.7,0-6.84-2.24-6.84-6.07a7.27,7.27,0,0,1,7.41-7.25C473.18,135.82,476.35,138.12,476.35,141.89Zm-2.3-.87c-1-3.28-3.53-5.61-6.64-4.71s-4,4.32-3,7.63,3.53,5.64,6.64,4.71S475,144.33,474.05,141Z"/><path class="cls-2" d="M491.77,148.78v.2h-3.39v-.2c.44-.24.55-.71.47-1.61s-.5-5.52-.63-6.95c-.2-2.05-1.21-4.37-3.56-3.91-3.06.61-3.64,6.32-3.64,8.62v2.24c0,1,.2,1.37.63,1.61v.2h-3.39v-.2c.41-.24.6-.65.6-1.61v-9.24c0-1-.08-1.23-.6-1.32v-.19l2.57-.6H481v6.78c.36-3.06,1.29-6.78,4.85-6.78,2.24,0,4.15,1.53,4.48,4.81.27,2.66.55,5.53.66,6.54S491.36,148.54,491.77,148.78Z"/></g></g></svg>