<svg xmlns="http://www.w3.org/2000/svg" width="32" height="32" viewBox="0 0 32 32"><g transform="translate(3933 -1476)"><rect width="32" height="32" transform="translate(-3933 1476)" fill="none"/><g transform="translate(-3932.148 1246.186)" fill="rgba(153,153,153,0.2)"><path d="M 15 252.5857849121094 L 9.596110343933105 247.1819000244141 L 8.374110221862793 245.9598999023438 C 6.742020130157471 244.3278045654297 6.742020130157471 241.6721954345703 8.374110221862793 240.0401000976563 C 9.164609909057617 239.2496032714844 10.21560955047607 238.8142547607422 11.33349990844727 238.8142547607422 C 12.45139026641846 238.8142547607422 13.50238990783691 239.2496032714844 14.29288959503174 240.0401000976563 L 15 240.7472076416016 L 15.70711040496826 240.0401000976563 C 16.49761009216309 239.2496032714844 17.54861068725586 238.8142547607422 18.66650009155273 238.8142547607422 C 19.78438949584961 238.8142547607422 20.83539009094238 239.2496032714844 21.62589073181152 240.0401000976563 C 23.25798034667969 241.6721954345703 23.25798034667969 244.3278045654297 21.62589073181152 245.9598999023438 L 20.40389060974121 247.1819000244141 L 15 252.5857849121094 Z" stroke="none"/><path d="M 11.33349990844727 239.8142547607422 C 10.48271942138672 239.8142547607422 9.682840347290039 240.1455841064453 9.081220626831055 240.7472076416016 C 7.839029312133789 241.9893951416016 7.839029312133789 244.0106048583984 9.081209182739258 245.2528076171875 L 10.30320930480957 246.4748077392578 L 15 251.1715850830078 L 19.6967887878418 246.4748077392578 L 20.91878128051758 245.2528076171875 C 22.16097068786621 244.0106048583984 22.16097068786621 241.9893951416016 20.91878890991211 240.7472076416016 C 20.31715965270996 240.1455841064453 19.51728057861328 239.8142547607422 18.66650009155273 239.8142547607422 C 17.81571960449219 239.8142547607422 17.01583862304688 240.1455841064453 16.41421127319336 240.7472076416016 L 15 242.1614227294922 L 13.58579063415527 240.7472076416016 C 12.98415946960449 240.1455841064453 12.18428039550781 239.8142547607422 11.33349990844727 239.8142547607422 M 11.33349990844727 237.8142547607422 C 12.66049957275391 237.8142547607422 13.98749923706055 238.3204956054688 15 239.3329925537109 C 16.01250076293945 238.3204956054688 17.33950042724609 237.8142547607422 18.66650009155273 237.8142547607422 C 19.99349975585938 237.8142547607422 21.32049942016602 238.3204956054688 22.33300018310547 239.3329925537109 C 24.35799980163574 241.3580017089844 24.35799980163574 244.6419982910156 22.33300018310547 246.6670074462891 L 21.11100006103516 247.8890075683594 L 15 254 L 8.888999938964844 247.8890075683594 L 7.666999816894531 246.6670074462891 C 5.642000198364258 244.6419982910156 5.642000198364258 241.3580017089844 7.666999816894531 239.3329925537109 C 8.679500579833984 238.3204956054688 10.00650024414063 237.8142547607422 11.33349990844727 237.8142547607422 Z" stroke="none" fill="#fff"/></g></g></svg>