<svg id="레이어_2" data-name="레이어 2" xmlns="http://www.w3.org/2000/svg" width="24" height="24" viewBox="0 0 24 24">
  <defs>
    <style>
      .cls-1 {
        fill: #1d1d2d;
      }

      .cls-2 {
        fill: none;
      }
    </style>
  </defs>
  <path id="패스_2" data-name="패스 2" class="cls-1" d="M15.31,10.72A4.94,4.94,0,0,0,17,7,5,5,0,1,0,7,7a4.94,4.94,0,0,0,1.69,3.72A8,8,0,0,0,4,18v4H20V18a8,8,0,0,0-4.69-7.28ZM9,7a3,3,0,1,1,3,3A3,3,0,0,1,9,7Zm9,13H6V18a6,6,0,0,1,12,0Z"/>
  <rect id="사각형_88" data-name="사각형 88" class="cls-2" width="24" height="24"/>
</svg>
