<svg xmlns="http://www.w3.org/2000/svg" width="24" height="24" viewBox="0 0 24 24">
  <defs>
    <style>
      .cls-1, .cls-2 {
        fill: none;
      }

      .cls-1 {
        stroke-miterlimit: 10;
      }

      .cls-3, .cls-4 {
        stroke: none;
      }

      .cls-4 {
        fill: #000;
      }
    </style>
  </defs>
  <g id="그룹_41" data-name="그룹 41" transform="translate(-291 -581)">
    <g id="패스_20" data-name="패스 20" class="cls-1">
      <path class="cls-3" d="M303,583l-8,8v12h6v-4a2,2,0,0,1,2-2h0a2,2,0,0,1,2,2v4h6V591Z"/>
      <path class="cls-4" d="M 303 585.8284301757813 L 297 591.8284301757813 L 297 601 L 299 601 L 299 599 C 299 596.7943725585938 300.7944030761719 595 303 595 C 305.2055969238281 595 307 596.7943725585938 307 599 L 307 601 L 309 601 L 309 591.8284301757813 L 303 585.8284301757813 M 303 583 L 311 591 L 311 603 L 305 603 L 305 599 C 305 597.89501953125 304.1050109863281 597 303 597 C 301.8949890136719 597 301 597.89501953125 301 599 L 301 603 L 295 603 L 295 591 L 303 583 Z"/>
    </g>
    <rect id="사각형_102" data-name="사각형 102" class="cls-2" width="24" height="24" transform="translate(291 581)"/>
  </g>
</svg>
