<svg xmlns="http://www.w3.org/2000/svg" width="24" height="24" viewBox="0 0 24 24"><defs><style>.a{fill:none;}.b{fill:#1d1d2d;}</style></defs><g transform="translate(-197 -325)"><rect class="a" width="24" height="24" transform="translate(197 325)"/><path class="b" d="M16.163,713.894l2.478,4.986,5.54.8a1.121,1.121,0,0,1,.626,1.916L20.8,725.474l.947,5.478a1.129,1.129,0,0,1-1.639,1.185l-4.957-2.588-4.957,2.588a1.129,1.129,0,0,1-1.639-1.185l.947-5.478L5.492,721.6a1.121,1.121,0,0,1,.626-1.916l5.54-.8,2.478-4.986A1.134,1.134,0,0,1,16.163,713.894Z" transform="translate(193.851 -386.268)"/></g></svg>