<svg id="레이어_2" data-name="레이어 2" xmlns="http://www.w3.org/2000/svg" width="24" height="24" viewBox="0 0 24 24">
  <defs>
    <style>
      .cls-1, .cls-2 {
        fill: none;
      }

      .cls-3, .cls-4 {
        stroke: none;
      }

      .cls-4 {
        fill: #1d1d2d;
      }
    </style>
  </defs>
  <g id="패스_8" data-name="패스 8" class="cls-1">
    <path class="cls-3" d="M20.06,5.22a5.52,5.52,0,0,0-7.49.53L12,6.34l-.57-.59a5.52,5.52,0,0,0-7.49-.53,5.63,5.63,0,0,0-.36,8.16L12,22l8.42-8.62a5.63,5.63,0,0,0-.36-8.16Z"/>
    <path class="cls-4" d="M 7.397439956665039 6.001457214355469 C 6.600313186645508 6.001457214355469 5.849374771118164 6.261796951293945 5.223159790039063 6.75483512878418 C 4.491611480712891 7.403739929199219 4.0482177734375 8.33311653137207 4.005090713500977 9.310815811157227 C 3.961483001708984 10.29914283752441 4.329618453979492 11.27427387237549 5.015323638916016 11.9871997833252 L 12 19.13778305053711 L 18.98467636108398 11.9871997833252 C 19.67037963867188 11.27427387237549 20.03851699829102 10.29914283752441 19.99490928649902 9.310806274414063 C 19.9517822265625 8.33311653137207 19.50841522216797 7.403762817382813 18.77686500549316 6.754858016967773 C 18.1506519317627 6.261829376220703 17.39969635009766 6.001466751098633 16.60247993469238 6.001457214355469 C 15.61666011810303 6.001457214355469 14.703200340271 6.397457122802734 14.03036975860596 7.116497039794922 L 14.0083703994751 7.139646530151367 L 11.99999046325684 9.218456268310547 L 9.969630241394043 7.116497039794922 C 9.296810150146484 6.397445678710938 8.383319854736328 6.001457214355469 7.397439956665039 6.001457214355469 M 7.397441864013672 4.001459121704102 C 8.876448631286621 4.001459121704102 10.34773635864258 4.593385696411133 11.43000030517578 5.749996185302734 L 12 6.339996337890625 L 12.56999969482422 5.750005722045898 C 14.54347991943359 3.640937805175781 17.80918884277344 3.409852981567383 20.05999946594238 5.219997406005859 C 21.22603988647461 6.232625961303711 21.9249095916748 7.67979621887207 21.99296951293945 9.222665786743164 C 22.0610408782959 10.76552677154541 21.49233055114746 12.26861667633057 20.42000007629395 13.37999629974365 L 12 21.99999618530273 L 3.579999923706055 13.37999629974365 C 2.507669448852539 12.26861667633057 1.938959121704102 10.76552677154541 2.007030487060547 9.222665786743164 C 2.075090408325195 7.67979621887207 2.773960113525391 6.232625961303711 3.940000534057617 5.219997406005859 C 4.956464767456055 4.402538299560547 6.179506301879883 4.001459121704102 7.397441864013672 4.001459121704102 Z"/>
  </g>
  <rect id="사각형_98" data-name="사각형 98" class="cls-2" width="24" height="24"/>
</svg>
