<svg xmlns="http://www.w3.org/2000/svg" width="24" height="24" viewBox="0 0 24 24"><defs><style>.a{fill:#1d1d2d;stroke-miterlimit:10;}.b{fill:none;}.c,.d{stroke:none;}.d{fill:#000;}</style></defs><g transform="translate(-291 -581)"><g class="a"><path class="c" d="M 310 602 L 306 602 L 306 599 C 306 597.3457641601563 304.6542053222656 596 303 596 C 301.3457946777344 596 300 597.3457641601563 300 599 L 300 602 L 296 602 L 296 591.4142456054688 L 303 584.4142456054688 L 310 591.4142456054688 L 310 602 Z"/><path class="d" d="M 303 585.8284301757813 L 297 591.8284301757813 L 297 601 L 299 601 L 299 599 C 299 596.7943725585938 300.7944030761719 595 303 595 C 305.2055969238281 595 307 596.7943725585938 307 599 L 307 601 L 309 601 L 309 591.8284301757813 L 303 585.8284301757813 M 303 583 L 311 591 L 311 603 L 305 603 L 305 599 C 305 597.89501953125 304.1050109863281 597 303 597 C 301.8949890136719 597 301 597.89501953125 301 599 L 301 603 L 295 603 L 295 591 L 303 583 Z"/></g><rect class="b" width="24" height="24" transform="translate(291 581)"/></g></svg>